<svg xmlns="http://www.w3.org/2000/svg" xmlns:xlink="http://www.w3.org/1999/xlink" width="1080" zoomAndPan="magnify" viewBox="0 0 810 299.999988" height="400" preserveAspectRatio="xMidYMid meet" version="1.0"><defs><g/></defs><g fill="#737373" fill-opacity="1"><g transform="translate(334.899306, 207.078405)"><g><path d="M 106.234375 -15.625 C 107.492188 -13.46875 108.914062 -11.566406 110.5 -9.921875 C 112.09375 -8.273438 113.875 -7.453125 115.84375 -7.453125 C 116.445312 -7.453125 117.347656 -7.644531 118.546875 -8.03125 C 119.742188 -8.425781 120.984375 -8.875 122.265625 -9.375 C 123.554688 -9.882812 124.800781 -10.332031 126 -10.71875 C 127.195312 -11.113281 128.125 -11.3125 128.78125 -11.3125 C 129.613281 -11.3125 130.285156 -11.160156 130.796875 -10.859375 C 131.304688 -10.566406 131.679688 -10.238281 131.921875 -9.875 C 132.160156 -9.519531 132.3125 -9.175781 132.375 -8.84375 C 132.4375 -8.519531 132.46875 -8.296875 132.46875 -8.171875 C 132.46875 -7.929688 132.375 -7.554688 132.1875 -7.046875 C 132.007812 -6.535156 131.441406 -5.953125 130.484375 -5.296875 C 127.128906 -3.140625 123.519531 -1.253906 119.65625 0.359375 C 115.800781 1.972656 111.597656 2.78125 107.046875 2.78125 C 104.171875 2.78125 101.65625 2.316406 99.5 1.390625 C 97.34375 0.460938 95.410156 -0.742188 93.703125 -2.234375 C 92.003906 -3.734375 90.453125 -5.457031 89.046875 -7.40625 C 87.640625 -9.351562 86.273438 -11.34375 84.953125 -13.375 C 84.359375 -14.21875 83.773438 -15.085938 83.203125 -15.984375 C 82.640625 -16.878906 82.023438 -17.773438 81.359375 -18.671875 C 78.484375 -16.160156 75.351562 -13.644531 71.96875 -11.125 C 68.59375 -8.613281 65.03125 -6.351562 61.28125 -4.34375 C 57.539062 -2.34375 53.648438 -0.71875 49.609375 0.53125 C 45.578125 1.789062 41.429688 2.421875 37.171875 2.421875 C 32.203125 2.421875 27.578125 1.375 23.296875 -0.71875 C 19.023438 -2.8125 15.316406 -5.5625 12.171875 -8.96875 C 9.023438 -12.382812 6.550781 -16.265625 4.75 -20.609375 C 2.957031 -24.953125 2.0625 -29.367188 2.0625 -33.859375 C 2.0625 -38.410156 2.914062 -42.507812 4.625 -46.15625 C 6.332031 -49.8125 8.695312 -53.148438 11.71875 -56.171875 C 14.738281 -59.191406 18.285156 -61.898438 22.359375 -64.296875 C 26.429688 -66.691406 30.863281 -68.910156 35.65625 -70.953125 C 33.613281 -72.984375 31.769531 -74.984375 30.125 -76.953125 C 28.476562 -78.929688 27.085938 -80.9375 25.953125 -82.96875 C 24.816406 -85.007812 23.945312 -87.132812 23.34375 -89.34375 C 22.75 -91.5625 22.453125 -93.988281 22.453125 -96.625 C 22.453125 -100.582031 23.332031 -104.039062 25.09375 -107 C 26.863281 -109.96875 29.1875 -112.453125 32.0625 -114.453125 C 34.9375 -116.460938 38.195312 -117.957031 41.84375 -118.9375 C 45.5 -119.925781 49.210938 -120.421875 52.984375 -120.421875 C 56.273438 -120.421875 59.566406 -119.882812 62.859375 -118.8125 C 66.148438 -117.738281 69.113281 -116.226562 71.75 -114.28125 C 74.382812 -112.332031 76.507812 -109.960938 78.125 -107.171875 C 79.75 -104.390625 80.5625 -101.296875 80.5625 -97.890625 C 80.5625 -95.128906 79.988281 -92.566406 78.84375 -90.203125 C 77.707031 -87.835938 76.238281 -85.648438 74.4375 -83.640625 C 72.644531 -81.640625 70.609375 -79.816406 68.328125 -78.171875 C 66.054688 -76.523438 63.785156 -75.046875 61.515625 -73.734375 C 61.273438 -73.554688 61.109375 -73.4375 61.015625 -73.375 C 60.929688 -73.3125 60.890625 -73.191406 60.890625 -73.015625 C 60.890625 -72.710938 61.066406 -72.441406 61.421875 -72.203125 C 61.660156 -72.023438 62.347656 -71.425781 63.484375 -70.40625 C 64.628906 -69.382812 66.304688 -67.765625 68.515625 -65.546875 C 70.734375 -63.335938 73.519531 -60.4375 76.875 -56.84375 C 80.226562 -53.25 84.207031 -48.789062 88.8125 -43.46875 L 108.125 -72.65625 C 108.664062 -73.488281 109.082031 -74.265625 109.375 -74.984375 C 109.675781 -75.703125 109.828125 -76.601562 109.828125 -77.6875 C 109.828125 -79.175781 109.46875 -80.128906 108.75 -80.546875 C 108.03125 -80.972656 107.285156 -81.242188 106.515625 -81.359375 C 105.671875 -81.546875 104.859375 -81.710938 104.078125 -81.859375 C 103.304688 -82.003906 102.617188 -82.210938 102.015625 -82.484375 C 101.421875 -82.753906 100.941406 -83.113281 100.578125 -83.5625 C 100.222656 -84.007812 100.046875 -84.5625 100.046875 -85.21875 C 100.046875 -85.457031 100.0625 -85.742188 100.09375 -86.078125 C 100.125 -86.410156 100.269531 -86.738281 100.53125 -87.0625 C 100.800781 -87.394531 101.207031 -87.664062 101.75 -87.875 C 102.289062 -88.082031 103.066406 -88.1875 104.078125 -88.1875 L 139.203125 -88.1875 C 139.859375 -87.164062 140.242188 -86.382812 140.359375 -85.84375 C 140.484375 -85.3125 140.546875 -84.984375 140.546875 -84.859375 C 140.546875 -83.546875 140.1875 -82.679688 139.46875 -82.265625 C 138.75 -81.847656 137.757812 -81.578125 136.5 -81.453125 C 135.125 -81.273438 133.734375 -81.109375 132.328125 -80.953125 C 130.921875 -80.804688 129.554688 -80.550781 128.234375 -80.1875 C 126.921875 -79.832031 125.679688 -79.28125 124.515625 -78.53125 C 123.347656 -77.78125 122.34375 -76.75 121.5 -75.4375 L 95.46875 -34.125 Z M 45.796875 -10.953125 C 48.429688 -10.953125 51.066406 -11.460938 53.703125 -12.484375 C 56.335938 -13.503906 58.894531 -14.742188 61.375 -16.203125 C 63.863281 -17.671875 66.273438 -19.257812 68.609375 -20.96875 C 70.941406 -22.675781 73.097656 -24.25 75.078125 -25.6875 C 75.734375 -26.164062 76.0625 -26.613281 76.0625 -27.03125 C 76.0625 -27.207031 76.003906 -27.414062 75.890625 -27.65625 C 71.578125 -35.320312 66.722656 -42.175781 61.328125 -48.21875 C 55.941406 -54.269531 50.078125 -59.929688 43.734375 -65.203125 C 43.429688 -65.078125 42.921875 -64.804688 42.203125 -64.390625 C 41.484375 -63.972656 40.882812 -63.613281 40.40625 -63.3125 C 38.070312 -61.9375 35.929688 -60.226562 33.984375 -58.1875 C 32.046875 -56.15625 30.375 -53.894531 28.96875 -51.40625 C 27.5625 -48.925781 26.46875 -46.265625 25.6875 -43.421875 C 24.90625 -40.578125 24.515625 -37.71875 24.515625 -34.84375 C 24.515625 -31.789062 25.066406 -28.828125 26.171875 -25.953125 C 27.285156 -23.078125 28.8125 -20.53125 30.75 -18.3125 C 32.695312 -16.101562 34.957031 -14.320312 37.53125 -12.96875 C 40.113281 -11.625 42.867188 -10.953125 45.796875 -10.953125 Z M 41.9375 -100.140625 C 41.9375 -98.035156 42.21875 -95.96875 42.78125 -93.9375 C 43.351562 -91.90625 44.132812 -89.988281 45.125 -88.1875 C 46.113281 -86.394531 47.296875 -84.734375 48.671875 -83.203125 C 50.046875 -81.679688 51.546875 -80.347656 53.171875 -79.203125 C 54.597656 -79.742188 55.878906 -80.703125 57.015625 -82.078125 C 58.160156 -83.453125 59.117188 -84.992188 59.890625 -86.703125 C 60.671875 -88.410156 61.269531 -90.175781 61.6875 -92 C 62.113281 -93.832031 62.328125 -95.492188 62.328125 -96.984375 C 62.328125 -99.140625 62.128906 -101.160156 61.734375 -103.046875 C 61.347656 -104.929688 60.71875 -106.5625 59.84375 -107.9375 C 58.976562 -109.320312 57.859375 -110.398438 56.484375 -111.171875 C 55.109375 -111.953125 53.40625 -112.34375 51.375 -112.34375 C 48.3125 -112.34375 45.972656 -111.175781 44.359375 -108.84375 C 42.742188 -106.507812 41.9375 -103.609375 41.9375 -100.140625 Z M 41.9375 -100.140625 "/></g></g></g><g fill="#ffffff" fill-opacity="1"><g transform="translate(75.73934, 116.144044)"><g><path d="M 5.703125 -37.75 C 5.703125 -41.800781 6.207031 -45.625 7.21875 -49.21875 C 8.226562 -52.820312 9.65625 -56.140625 11.5 -59.171875 C 13.34375 -62.210938 15.566406 -64.941406 18.171875 -67.359375 C 20.773438 -69.785156 23.660156 -71.835938 26.828125 -73.515625 C 29.992188 -75.203125 33.382812 -76.5 37 -77.40625 C 40.613281 -78.3125 44.390625 -78.765625 48.328125 -78.765625 C 51.660156 -78.765625 54.867188 -78.460938 57.953125 -77.859375 C 61.046875 -77.265625 64.238281 -76.570312 67.53125 -75.78125 C 68.070312 -75.632812 68.640625 -75.453125 69.234375 -75.234375 C 69.835938 -75.015625 70.398438 -74.804688 70.921875 -74.609375 C 71.453125 -74.410156 71.929688 -74.238281 72.359375 -74.09375 C 72.796875 -73.945312 73.125 -73.875 73.34375 -73.875 C 73.414062 -73.875 73.660156 -73.945312 74.078125 -74.09375 C 74.492188 -74.238281 74.789062 -74.3125 74.96875 -74.3125 L 77.46875 -74.3125 C 77.894531 -74.3125 78.109375 -74.003906 78.109375 -73.390625 L 78.109375 -55.703125 C 78.109375 -55.492188 78.023438 -55.351562 77.859375 -55.28125 C 77.703125 -55.207031 77.351562 -55.171875 76.8125 -55.171875 C 76.695312 -55.171875 76.414062 -55.175781 75.96875 -55.1875 C 75.519531 -55.207031 75.238281 -55.3125 75.125 -55.5 C 75.050781 -55.601562 74.914062 -55.816406 74.71875 -56.140625 C 74.519531 -56.460938 74.300781 -56.796875 74.0625 -57.140625 C 73.832031 -57.484375 73.617188 -57.804688 73.421875 -58.109375 C 73.222656 -58.421875 73.101562 -58.632812 73.0625 -58.75 C 71.6875 -61.457031 70.1875 -63.742188 68.5625 -65.609375 C 66.9375 -67.472656 65.140625 -68.984375 63.171875 -70.140625 C 61.203125 -71.296875 59.054688 -72.132812 56.734375 -72.65625 C 54.421875 -73.1875 51.910156 -73.453125 49.203125 -73.453125 C 45.765625 -73.453125 42.71875 -73.050781 40.0625 -72.25 C 37.40625 -71.457031 35.082031 -70.335938 33.09375 -68.890625 C 31.101562 -67.441406 29.425781 -65.703125 28.0625 -63.671875 C 26.707031 -61.648438 25.601562 -59.4375 24.75 -57.03125 C 23.90625 -54.632812 23.289062 -52.066406 22.90625 -49.328125 C 22.53125 -46.597656 22.34375 -43.789062 22.34375 -40.90625 C 22.34375 -37.832031 22.5625 -34.785156 23 -31.765625 C 23.4375 -28.742188 24.140625 -25.867188 25.109375 -23.140625 C 26.085938 -20.410156 27.34375 -17.878906 28.875 -15.546875 C 30.414062 -13.210938 32.269531 -11.1875 34.4375 -9.46875 C 36.613281 -7.75 39.144531 -6.398438 42.03125 -5.421875 C 44.925781 -4.441406 48.203125 -3.953125 51.859375 -3.953125 C 54.929688 -3.953125 57.796875 -4.410156 60.453125 -5.328125 C 63.109375 -6.253906 65.539062 -7.503906 67.75 -9.078125 C 69.957031 -10.660156 71.921875 -12.472656 73.640625 -14.515625 C 75.359375 -16.554688 76.832031 -18.695312 78.0625 -20.9375 C 78.132812 -21.113281 78.210938 -21.210938 78.296875 -21.234375 C 78.390625 -21.253906 78.523438 -21.265625 78.703125 -21.265625 L 81.46875 -21.265625 C 81.582031 -21.265625 81.703125 -21.21875 81.828125 -21.125 C 81.953125 -21.039062 82.015625 -20.851562 82.015625 -20.5625 C 82.015625 -20.445312 81.929688 -20.164062 81.765625 -19.71875 C 81.609375 -19.269531 81.441406 -18.878906 81.265625 -18.546875 L 73.765625 -2.0625 C 73.703125 -1.957031 73.597656 -1.867188 73.453125 -1.796875 C 73.304688 -1.722656 73.175781 -1.6875 73.0625 -1.6875 C 72.195312 -1.6875 71.59375 -1.753906 71.25 -1.890625 C 70.90625 -2.035156 70.550781 -2.109375 70.1875 -2.109375 C 69.101562 -2.109375 67.664062 -1.914062 65.875 -1.53125 C 64.09375 -1.15625 62.160156 -0.75 60.078125 -0.3125 C 57.992188 0.113281 55.894531 0.515625 53.78125 0.890625 C 51.664062 1.273438 49.773438 1.46875 48.109375 1.46875 C 44.316406 1.46875 40.628906 1.050781 37.046875 0.21875 C 33.460938 -0.613281 30.097656 -1.816406 26.953125 -3.390625 C 23.804688 -4.960938 20.929688 -6.894531 18.328125 -9.1875 C 15.722656 -11.488281 13.476562 -14.082031 11.59375 -16.96875 C 9.71875 -19.863281 8.265625 -23.054688 7.234375 -26.546875 C 6.210938 -30.035156 5.703125 -33.769531 5.703125 -37.75 Z M 5.703125 -37.75 "/></g></g><g transform="translate(161.931591, 116.144044)"><g><path d="M 30.484375 -1.625 C 30.484375 -1.40625 30.445312 -1.097656 30.375 -0.703125 C 30.300781 -0.304688 30.15625 -0.0703125 29.9375 0 L 1.625 0 C 1.40625 -0.0703125 1.257812 -0.304688 1.1875 -0.703125 C 1.113281 -1.097656 1.078125 -1.40625 1.078125 -1.625 C 1.078125 -1.8125 1.128906 -2.101562 1.234375 -2.5 C 1.347656 -2.894531 1.476562 -3.128906 1.625 -3.203125 C 2.09375 -3.421875 2.757812 -3.59375 3.625 -3.71875 C 4.5 -3.84375 5.367188 -4.09375 6.234375 -4.46875 C 7.109375 -4.851562 7.867188 -5.453125 8.515625 -6.265625 C 9.171875 -7.078125 9.5 -8.28125 9.5 -9.875 L 9.5 -73.125 C 9.5 -73.988281 9.257812 -74.664062 8.78125 -75.15625 C 8.3125 -75.644531 7.710938 -76.015625 6.984375 -76.265625 C 6.265625 -76.515625 5.488281 -76.722656 4.65625 -76.890625 C 3.832031 -77.054688 3.039062 -77.25 2.28125 -77.46875 C 1.8125 -77.644531 1.578125 -78.148438 1.578125 -78.984375 C 1.578125 -79.160156 1.628906 -79.398438 1.734375 -79.703125 C 1.847656 -80.015625 2.066406 -80.265625 2.390625 -80.453125 L 20.34375 -88.90625 C 20.488281 -88.976562 20.648438 -89.050781 20.828125 -89.125 C 21.003906 -89.195312 21.203125 -89.234375 21.421875 -89.234375 C 21.710938 -89.234375 21.894531 -89.132812 21.96875 -88.9375 C 22.039062 -88.738281 22.078125 -88.40625 22.078125 -87.9375 L 22.078125 -9.875 C 22.078125 -8.28125 22.398438 -7.078125 23.046875 -6.265625 C 23.703125 -5.453125 24.460938 -4.851562 25.328125 -4.46875 C 26.203125 -4.09375 27.070312 -3.84375 27.9375 -3.71875 C 28.800781 -3.59375 29.46875 -3.421875 29.9375 -3.203125 C 30.082031 -3.128906 30.207031 -2.894531 30.3125 -2.5 C 30.425781 -2.101562 30.484375 -1.8125 30.484375 -1.625 Z M 30.484375 -1.625 "/></g></g><g transform="translate(194.31471, 116.144044)"><g><path d="M 26.421875 -1.078125 C 25.222656 -0.253906 23.8125 0.390625 22.1875 0.859375 C 20.5625 1.335938 18.929688 1.578125 17.296875 1.578125 C 12.890625 1.578125 9.535156 0.582031 7.234375 -1.40625 C 4.941406 -3.394531 3.796875 -6.09375 3.796875 -9.5 C 3.796875 -11.445312 4.238281 -13.125 5.125 -14.53125 C 6.007812 -15.945312 7.316406 -17.195312 9.046875 -18.28125 C 10.785156 -19.363281 12.929688 -20.347656 15.484375 -21.234375 C 18.035156 -22.117188 20.992188 -23 24.359375 -23.875 C 26.160156 -24.34375 27.613281 -24.847656 28.71875 -25.390625 C 29.820312 -25.929688 30.84375 -26.453125 31.78125 -26.953125 C 32.394531 -27.285156 32.75 -27.578125 32.84375 -27.828125 C 32.9375 -28.078125 32.984375 -28.3125 32.984375 -28.53125 L 32.984375 -37.96875 C 32.984375 -39.164062 32.8125 -40.28125 32.46875 -41.3125 C 32.125 -42.34375 31.609375 -43.234375 30.921875 -43.984375 C 30.234375 -44.742188 29.398438 -45.34375 28.421875 -45.78125 C 27.441406 -46.21875 26.335938 -46.4375 25.109375 -46.4375 C 24.066406 -46.4375 23.09375 -46.253906 22.1875 -45.890625 C 21.28125 -45.523438 20.5 -45 19.84375 -44.3125 C 19.195312 -43.625 18.679688 -42.8125 18.296875 -41.875 C 17.921875 -40.9375 17.734375 -39.867188 17.734375 -38.671875 C 17.734375 -38.566406 17.742188 -38.40625 17.765625 -38.1875 C 17.785156 -37.96875 17.8125 -37.738281 17.84375 -37.5 C 17.882812 -37.269531 17.921875 -37.0625 17.953125 -36.875 C 17.992188 -36.695312 18.015625 -36.59375 18.015625 -36.5625 C 17.972656 -36.488281 17.671875 -36.34375 17.109375 -36.125 C 16.554688 -35.90625 15.867188 -35.660156 15.046875 -35.390625 C 14.234375 -35.117188 13.335938 -34.847656 12.359375 -34.578125 C 11.390625 -34.304688 10.460938 -34.046875 9.578125 -33.796875 C 8.691406 -33.546875 7.910156 -33.316406 7.234375 -33.109375 C 6.566406 -32.910156 6.109375 -32.796875 5.859375 -32.765625 C 5.460938 -32.765625 5.21875 -32.972656 5.125 -33.390625 C 5.03125 -33.804688 4.984375 -34.210938 4.984375 -34.609375 C 4.984375 -36.703125 5.613281 -38.742188 6.875 -40.734375 C 8.144531 -42.722656 9.835938 -44.484375 11.953125 -46.015625 C 14.078125 -47.554688 16.507812 -48.796875 19.25 -49.734375 C 22 -50.679688 24.84375 -51.15625 27.78125 -51.15625 C 30.375 -51.15625 32.703125 -50.816406 34.765625 -50.140625 C 36.828125 -49.472656 38.582031 -48.550781 40.03125 -47.375 C 41.476562 -46.207031 42.582031 -44.851562 43.34375 -43.3125 C 44.101562 -41.78125 44.484375 -40.144531 44.484375 -38.40625 L 44.484375 -12.53125 C 44.484375 -11.59375 44.832031 -10.75 45.53125 -10 C 46.238281 -9.257812 47.15625 -8.890625 48.28125 -8.890625 C 48.925781 -8.890625 49.507812 -9.003906 50.03125 -9.234375 C 50.5625 -9.472656 51.035156 -9.75 51.453125 -10.0625 C 51.867188 -10.375 52.21875 -10.644531 52.5 -10.875 C 52.789062 -11.113281 53.046875 -11.234375 53.265625 -11.234375 C 53.554688 -11.234375 53.71875 -11.113281 53.75 -10.875 C 53.789062 -10.644531 53.8125 -10.4375 53.8125 -10.25 C 53.8125 -9.632812 53.726562 -9.007812 53.5625 -8.375 C 53.40625 -7.75 53.125 -7.289062 52.71875 -7 C 50.945312 -5.65625 49.375 -4.453125 48 -3.390625 C 46.632812 -2.328125 45.390625 -1.414062 44.265625 -0.65625 C 43.140625 0.101562 42.125 0.679688 41.21875 1.078125 C 40.320312 1.484375 39.472656 1.6875 38.671875 1.6875 C 37.953125 1.6875 37.3125 1.484375 36.75 1.078125 C 36.1875 0.679688 35.695312 0.195312 35.28125 -0.375 C 34.863281 -0.957031 34.507812 -1.582031 34.21875 -2.25 C 33.9375 -2.914062 33.695312 -3.535156 33.5 -4.109375 C 33.300781 -4.691406 33.144531 -5.164062 33.03125 -5.53125 C 32.925781 -5.894531 32.835938 -6.054688 32.765625 -6.015625 Z M 16.4375 -10.796875 C 16.4375 -9.816406 16.625 -9.019531 17 -8.40625 C 17.382812 -7.789062 17.882812 -7.320312 18.5 -7 C 19.113281 -6.675781 19.804688 -6.445312 20.578125 -6.3125 C 21.359375 -6.1875 22.164062 -6.125 23 -6.125 C 23.757812 -6.125 24.695312 -6.3125 25.8125 -6.6875 C 26.9375 -7.070312 28.03125 -7.582031 29.09375 -8.21875 C 30.164062 -8.851562 31.082031 -9.578125 31.84375 -10.390625 C 32.601562 -11.203125 32.984375 -12.023438 32.984375 -12.859375 L 32.984375 -21.8125 C 32.984375 -22.207031 32.835938 -22.40625 32.546875 -22.40625 C 32.472656 -22.40625 32.398438 -22.382812 32.328125 -22.34375 L 19.75 -16.484375 C 19.238281 -16.128906 18.773438 -15.796875 18.359375 -15.484375 C 17.941406 -15.179688 17.585938 -14.820312 17.296875 -14.40625 C 17.015625 -13.988281 16.800781 -13.5 16.65625 -12.9375 C 16.507812 -12.375 16.4375 -11.660156 16.4375 -10.796875 Z M 16.4375 -10.796875 "/></g></g><g transform="translate(249.47992, 116.144044)"><g><path d="M 3.796875 0 C 3.578125 -0.0703125 3.429688 -0.316406 3.359375 -0.734375 C 3.285156 -1.148438 3.25 -1.46875 3.25 -1.6875 C 3.25 -1.863281 3.300781 -2.148438 3.40625 -2.546875 C 3.519531 -2.941406 3.648438 -3.175781 3.796875 -3.25 C 4.265625 -3.46875 4.929688 -3.640625 5.796875 -3.765625 C 6.671875 -3.890625 7.539062 -4.140625 8.40625 -4.515625 C 9.269531 -4.898438 10.023438 -5.5 10.671875 -6.3125 C 11.328125 -7.132812 11.65625 -8.335938 11.65625 -9.921875 L 11.65625 -35.96875 C 11.65625 -36.832031 11.421875 -37.507812 10.953125 -38 C 10.484375 -38.488281 9.882812 -38.859375 9.15625 -39.109375 C 8.4375 -39.359375 7.660156 -39.566406 6.828125 -39.734375 C 6.003906 -39.898438 5.210938 -40.085938 4.453125 -40.296875 C 4.234375 -40.367188 4.0625 -40.46875 3.9375 -40.59375 C 3.8125 -40.726562 3.75 -40.992188 3.75 -41.390625 C 3.75 -41.566406 3.800781 -41.742188 3.90625 -41.921875 C 4.007812 -42.109375 4.226562 -42.289062 4.5625 -42.46875 L 22.515625 -50.9375 C 22.660156 -51.007812 22.8125 -51.082031 22.96875 -51.15625 C 23.132812 -51.226562 23.253906 -51.265625 23.328125 -51.265625 C 23.941406 -51.265625 24.25 -50.828125 24.25 -49.953125 L 24.25 -9.921875 C 24.25 -8.335938 24.570312 -7.132812 25.21875 -6.3125 C 25.875 -5.5 26.632812 -4.898438 27.5 -4.515625 C 28.363281 -4.140625 29.226562 -3.890625 30.09375 -3.765625 C 30.96875 -3.640625 31.640625 -3.46875 32.109375 -3.25 C 32.253906 -3.175781 32.378906 -2.941406 32.484375 -2.546875 C 32.597656 -2.148438 32.65625 -1.863281 32.65625 -1.6875 C 32.65625 -1.46875 32.617188 -1.148438 32.546875 -0.734375 C 32.472656 -0.316406 32.328125 -0.0703125 32.109375 0 Z M 9.328125 -70.890625 C 9.328125 -73.210938 10.015625 -75.0625 11.390625 -76.4375 C 12.765625 -77.8125 14.609375 -78.5 16.921875 -78.5 C 19.234375 -78.5 21.078125 -77.8125 22.453125 -76.4375 C 23.828125 -75.0625 24.515625 -73.210938 24.515625 -70.890625 C 24.515625 -68.578125 23.828125 -66.742188 22.453125 -65.390625 C 21.078125 -64.035156 19.234375 -63.359375 16.921875 -63.359375 C 14.609375 -63.359375 12.765625 -64.035156 11.390625 -65.390625 C 10.015625 -66.742188 9.328125 -68.578125 9.328125 -70.890625 Z M 9.328125 -70.890625 "/></g></g><g transform="translate(284.846408, 116.144044)"><g><path d="M 22.078125 -50.9375 C 22.222656 -51.007812 22.375 -51.082031 22.53125 -51.15625 C 22.695312 -51.226562 22.816406 -51.265625 22.890625 -51.265625 C 23.503906 -51.265625 23.8125 -50.828125 23.8125 -49.953125 L 23.8125 -40.734375 C 23.8125 -40.628906 23.820312 -40.492188 23.84375 -40.328125 C 23.863281 -40.171875 23.960938 -40.09375 24.140625 -40.09375 C 24.316406 -40.09375 24.457031 -40.15625 24.5625 -40.28125 C 24.675781 -40.40625 24.789062 -40.519531 24.90625 -40.625 C 25.550781 -41.5 26.28125 -42.46875 27.09375 -43.53125 C 27.90625 -44.59375 28.769531 -45.59375 29.6875 -46.53125 C 30.613281 -47.476562 31.566406 -48.265625 32.546875 -48.890625 C 33.523438 -49.523438 34.484375 -49.84375 35.421875 -49.84375 C 36.066406 -49.84375 36.914062 -49.660156 37.96875 -49.296875 C 39.019531 -48.941406 40.039062 -48.519531 41.03125 -48.03125 C 42.03125 -47.539062 42.878906 -47.035156 43.578125 -46.515625 C 44.285156 -45.992188 44.640625 -45.566406 44.640625 -45.234375 C 44.640625 -44.910156 44.476562 -44.304688 44.15625 -43.421875 C 43.832031 -42.535156 43.425781 -41.640625 42.9375 -40.734375 C 42.445312 -39.828125 41.921875 -39.019531 41.359375 -38.3125 C 40.796875 -37.613281 40.28125 -37.265625 39.8125 -37.265625 L 39.703125 -37.265625 C 39.054688 -37.484375 38.394531 -37.742188 37.71875 -38.046875 C 37.050781 -38.359375 36.375 -38.664062 35.6875 -38.96875 C 35 -39.28125 34.300781 -39.535156 33.59375 -39.734375 C 32.894531 -39.929688 32.1875 -40.03125 31.46875 -40.03125 C 30.375 -40.03125 29.359375 -39.800781 28.421875 -39.34375 C 27.484375 -38.894531 26.675781 -38.316406 26 -37.609375 C 25.332031 -36.910156 24.800781 -36.125 24.40625 -35.25 C 24.007812 -34.382812 23.8125 -33.554688 23.8125 -32.765625 L 23.8125 -9.875 C 23.8125 -8.820312 24.035156 -7.941406 24.484375 -7.234375 C 24.941406 -6.535156 25.519531 -5.957031 26.21875 -5.5 C 26.925781 -5.050781 27.703125 -4.707031 28.546875 -4.46875 C 29.398438 -4.238281 30.222656 -4.050781 31.015625 -3.90625 C 31.816406 -3.757812 32.539062 -3.640625 33.1875 -3.546875 C 33.84375 -3.460938 34.332031 -3.347656 34.65625 -3.203125 C 35.019531 -3.054688 35.203125 -2.550781 35.203125 -1.6875 C 35.203125 -0.632812 35.019531 -0.0703125 34.65625 0 L 3.359375 0 C 3.003906 -0.0703125 2.828125 -0.632812 2.828125 -1.6875 C 2.828125 -2.550781 3.003906 -3.054688 3.359375 -3.203125 C 3.828125 -3.421875 4.492188 -3.59375 5.359375 -3.71875 C 6.234375 -3.84375 7.101562 -4.09375 7.96875 -4.46875 C 8.84375 -4.851562 9.601562 -5.453125 10.25 -6.265625 C 10.90625 -7.078125 11.234375 -8.28125 11.234375 -9.875 L 11.234375 -35.96875 C 11.234375 -36.832031 10.992188 -37.507812 10.515625 -38 C 10.046875 -38.488281 9.453125 -38.859375 8.734375 -39.109375 C 8.015625 -39.359375 7.238281 -39.566406 6.40625 -39.734375 C 5.570312 -39.898438 4.773438 -40.085938 4.015625 -40.296875 C 3.796875 -40.367188 3.625 -40.46875 3.5 -40.59375 C 3.375 -40.726562 3.3125 -40.992188 3.3125 -41.390625 C 3.3125 -41.566406 3.363281 -41.742188 3.46875 -41.921875 C 3.582031 -42.109375 3.800781 -42.289062 4.125 -42.46875 Z M 22.078125 -50.9375 "/></g></g><g transform="translate(329.488461, 116.144044)"><g><path d="M 3.796875 -21.96875 C 3.796875 -26.195312 4.390625 -30.09375 5.578125 -33.65625 C 6.773438 -37.21875 8.492188 -40.300781 10.734375 -42.90625 C 12.984375 -45.507812 15.722656 -47.535156 18.953125 -48.984375 C 22.191406 -50.429688 25.875 -51.15625 30 -51.15625 C 31.226562 -51.15625 32.328125 -51.070312 33.296875 -50.90625 C 34.273438 -50.75 35.171875 -50.53125 35.984375 -50.25 C 36.804688 -49.976562 37.566406 -49.65625 38.265625 -49.28125 C 38.972656 -48.90625 39.6875 -48.5 40.40625 -48.0625 C 41.238281 -47.625 42.1875 -46.84375 43.25 -45.71875 C 44.320312 -44.601562 45.328125 -43.300781 46.265625 -41.8125 C 47.210938 -40.332031 48.007812 -38.75 48.65625 -37.0625 C 49.3125 -35.382812 49.640625 -33.769531 49.640625 -32.21875 C 49.640625 -31.71875 49.535156 -31.164062 49.328125 -30.5625 C 49.128906 -29.96875 48.796875 -29.671875 48.328125 -29.671875 L 16.328125 -29.671875 C 15.960938 -29.671875 15.71875 -29.34375 15.59375 -28.6875 C 15.46875 -28.039062 15.40625 -27.25 15.40625 -26.3125 C 15.40625 -23.125 15.863281 -20.289062 16.78125 -17.8125 C 17.707031 -15.34375 18.945312 -13.25 20.5 -11.53125 C 22.0625 -9.8125 23.851562 -8.507812 25.875 -7.625 C 27.894531 -6.738281 30.03125 -6.296875 32.28125 -6.296875 C 33.6875 -6.296875 35.039062 -6.484375 36.34375 -6.859375 C 37.644531 -7.242188 38.890625 -7.742188 40.078125 -8.359375 C 41.273438 -8.972656 42.394531 -9.65625 43.4375 -10.40625 C 44.488281 -11.164062 45.488281 -11.925781 46.4375 -12.6875 C 46.65625 -12.757812 46.800781 -12.796875 46.875 -12.796875 C 46.976562 -12.796875 47.117188 -12.707031 47.296875 -12.53125 C 47.628906 -12.238281 47.957031 -11.898438 48.28125 -11.515625 C 48.601562 -11.140625 48.851562 -10.828125 49.03125 -10.578125 C 49.144531 -10.472656 49.203125 -10.363281 49.203125 -10.25 C 49.203125 -10.144531 49.128906 -10.019531 48.984375 -9.875 C 47.785156 -8.457031 46.316406 -7.070312 44.578125 -5.71875 C 42.847656 -4.363281 41 -3.148438 39.03125 -2.078125 C 37.0625 -1.015625 35.046875 -0.160156 32.984375 0.484375 C 30.921875 1.140625 28.96875 1.46875 27.125 1.46875 C 23.394531 1.46875 20.082031 0.789062 17.1875 -0.5625 C 14.300781 -1.925781 11.863281 -3.707031 9.875 -5.90625 C 7.882812 -8.113281 6.375 -10.617188 5.34375 -13.421875 C 4.3125 -16.222656 3.796875 -19.070312 3.796875 -21.96875 Z M 35.640625 -33.84375 C 36.578125 -33.84375 37.046875 -34.257812 37.046875 -35.09375 C 37.046875 -36.507812 36.816406 -37.835938 36.359375 -39.078125 C 35.910156 -40.328125 35.269531 -41.429688 34.4375 -42.390625 C 33.613281 -43.347656 32.613281 -44.097656 31.4375 -44.640625 C 30.257812 -45.179688 28.945312 -45.453125 27.5 -45.453125 C 25.769531 -45.453125 24.253906 -45.082031 22.953125 -44.34375 C 21.648438 -43.601562 20.546875 -42.707031 19.640625 -41.65625 C 18.734375 -40.613281 18.050781 -39.53125 17.59375 -38.40625 C 17.144531 -37.28125 16.921875 -36.320312 16.921875 -35.53125 C 16.921875 -34.914062 17.007812 -34.476562 17.1875 -34.21875 C 17.375 -33.96875 17.613281 -33.84375 17.90625 -33.84375 Z M 35.640625 -33.84375 "/></g></g><g transform="translate(384.490943, 116.144044)"><g/></g><g transform="translate(414.324636, 116.144044)"><g><path d="M 2.390625 -2.828125 C 2.390625 -2.859375 2.40625 -2.9375 2.4375 -3.0625 C 2.476562 -3.1875 2.609375 -3.25 2.828125 -3.25 C 3.035156 -3.25 3.375 -3.285156 3.84375 -3.359375 C 4.320312 -3.429688 4.8125 -3.503906 5.3125 -3.578125 C 5.820312 -3.648438 6.289062 -3.726562 6.71875 -3.8125 C 7.15625 -3.90625 7.46875 -3.972656 7.65625 -4.015625 C 9.707031 -4.484375 11.140625 -5.25 11.953125 -6.3125 C 12.773438 -7.382812 13.1875 -8.71875 13.1875 -10.3125 L 13.1875 -65.421875 C 13.1875 -67.222656 12.804688 -68.648438 12.046875 -69.703125 C 11.285156 -70.753906 10.40625 -71.539062 9.40625 -72.0625 C 8.414062 -72.582031 7.457031 -72.90625 6.53125 -73.03125 C 5.613281 -73.164062 4.992188 -73.234375 4.671875 -73.234375 L 2.609375 -73.234375 C 2.421875 -73.234375 2.300781 -73.285156 2.25 -73.390625 C 2.195312 -73.503906 2.171875 -73.597656 2.171875 -73.671875 L 2.171875 -76.046875 C 2.171875 -76.117188 2.1875 -76.203125 2.21875 -76.296875 C 2.257812 -76.390625 2.390625 -76.453125 2.609375 -76.484375 C 2.640625 -76.484375 2.71875 -76.484375 2.84375 -76.484375 C 2.96875 -76.484375 3.226562 -76.492188 3.625 -76.515625 C 4.03125 -76.535156 4.613281 -76.550781 5.375 -76.5625 C 6.132812 -76.582031 7.203125 -76.609375 8.578125 -76.640625 C 10.554688 -76.679688 12.675781 -76.738281 14.9375 -76.8125 C 17.195312 -76.882812 19.484375 -76.957031 21.796875 -77.03125 C 24.117188 -77.101562 26.410156 -77.164062 28.671875 -77.21875 C 30.929688 -77.269531 33.054688 -77.296875 35.046875 -77.296875 L 40.515625 -77.296875 C 43.378906 -77.296875 46.289062 -76.804688 49.25 -75.828125 C 52.21875 -74.859375 54.90625 -73.421875 57.3125 -71.515625 C 59.71875 -69.617188 61.6875 -67.257812 63.21875 -64.4375 C 64.757812 -61.625 65.53125 -58.367188 65.53125 -54.671875 C 65.53125 -52.285156 65.203125 -50.160156 64.546875 -48.296875 C 63.898438 -46.441406 63.003906 -44.796875 61.859375 -43.359375 C 60.722656 -41.929688 59.367188 -40.675781 57.796875 -39.59375 C 56.222656 -38.507812 54.515625 -37.550781 52.671875 -36.71875 L 69.109375 -10.6875 C 70.515625 -8.445312 72.15625 -6.410156 74.03125 -4.578125 C 75.914062 -2.753906 78.109375 -1.484375 80.609375 -0.765625 C 80.898438 -0.691406 81.070312 -0.585938 81.125 -0.453125 C 81.175781 -0.328125 81.203125 -0.175781 81.203125 0 C 81.203125 0.539062 81.054688 0.898438 80.765625 1.078125 C 80.484375 1.265625 80.035156 1.359375 79.421875 1.359375 C 77.898438 1.359375 76.171875 1.257812 74.234375 1.0625 C 72.296875 0.863281 70.347656 0.535156 68.390625 0.078125 C 66.441406 -0.367188 64.59375 -0.953125 62.84375 -1.671875 C 61.09375 -2.398438 59.617188 -3.304688 58.421875 -4.390625 C 57.265625 -5.398438 56.085938 -6.679688 54.890625 -8.234375 C 53.703125 -9.796875 52.5 -11.472656 51.28125 -13.265625 C 50.070312 -15.054688 48.878906 -16.914062 47.703125 -18.84375 C 46.535156 -20.78125 45.398438 -22.671875 44.296875 -24.515625 C 43.191406 -26.359375 42.128906 -28.078125 41.109375 -29.671875 C 40.097656 -31.265625 39.175781 -32.617188 38.34375 -33.734375 L 29.890625 -34.34375 C 29.847656 -34.34375 29.703125 -34.34375 29.453125 -34.34375 C 29.203125 -34.34375 29.019531 -34.304688 28.90625 -34.234375 C 28.800781 -34.160156 28.726562 -34.085938 28.6875 -34.015625 C 28.65625 -33.941406 28.640625 -33.796875 28.640625 -33.578125 L 28.640625 -10.46875 C 28.640625 -9.488281 28.765625 -8.632812 29.015625 -7.90625 C 29.273438 -7.1875 29.703125 -6.566406 30.296875 -6.046875 C 30.890625 -5.523438 31.664062 -5.097656 32.625 -4.765625 C 33.582031 -4.441406 34.75 -4.191406 36.125 -4.015625 C 36.34375 -3.972656 36.660156 -3.914062 37.078125 -3.84375 C 37.492188 -3.78125 37.945312 -3.703125 38.4375 -3.609375 C 38.925781 -3.515625 39.40625 -3.429688 39.875 -3.359375 C 40.34375 -3.285156 40.738281 -3.25 41.0625 -3.25 C 41.28125 -3.25 41.40625 -3.191406 41.4375 -3.078125 C 41.476562 -2.972656 41.5 -2.890625 41.5 -2.828125 L 41.5 -0.4375 C 41.5 -0.363281 41.46875 -0.269531 41.40625 -0.15625 C 41.351562 -0.0507812 41.238281 0 41.0625 0 L 2.828125 0 C 2.640625 0 2.519531 -0.25 2.46875 -0.75 C 2.414062 -1.257812 2.390625 -1.734375 2.390625 -2.171875 Z M 28.75 -39.765625 C 28.78125 -39.472656 28.859375 -39.207031 28.984375 -38.96875 C 29.117188 -38.738281 29.382812 -38.601562 29.78125 -38.5625 C 30.101562 -38.53125 30.585938 -38.46875 31.234375 -38.375 C 31.890625 -38.289062 32.796875 -38.25 33.953125 -38.25 C 37.140625 -38.25 39.765625 -38.734375 41.828125 -39.703125 C 43.890625 -40.679688 45.515625 -41.992188 46.703125 -43.640625 C 47.898438 -45.285156 48.722656 -47.175781 49.171875 -49.3125 C 49.617188 -51.445312 49.84375 -53.671875 49.84375 -55.984375 C 49.84375 -58.398438 49.460938 -60.691406 48.703125 -62.859375 C 47.953125 -65.035156 46.894531 -66.914062 45.53125 -68.5 C 44.175781 -70.09375 42.550781 -71.359375 40.65625 -72.296875 C 38.757812 -73.242188 36.671875 -73.71875 34.390625 -73.71875 C 33.878906 -73.71875 33.476562 -73.707031 33.1875 -73.6875 C 32.90625 -73.675781 32.628906 -73.660156 32.359375 -73.640625 C 32.085938 -73.617188 31.78125 -73.597656 31.4375 -73.578125 C 31.09375 -73.566406 30.613281 -73.539062 30 -73.5 C 29.78125 -73.5 29.5 -73.453125 29.15625 -73.359375 C 28.8125 -73.273438 28.640625 -73.035156 28.640625 -72.640625 L 28.640625 -41.390625 Z M 28.75 -39.765625 "/></g></g><g transform="translate(496.177442, 116.144044)"><g><path d="M 26.421875 -1.078125 C 25.222656 -0.253906 23.8125 0.390625 22.1875 0.859375 C 20.5625 1.335938 18.929688 1.578125 17.296875 1.578125 C 12.890625 1.578125 9.535156 0.582031 7.234375 -1.40625 C 4.941406 -3.394531 3.796875 -6.09375 3.796875 -9.5 C 3.796875 -11.445312 4.238281 -13.125 5.125 -14.53125 C 6.007812 -15.945312 7.316406 -17.195312 9.046875 -18.28125 C 10.785156 -19.363281 12.929688 -20.347656 15.484375 -21.234375 C 18.035156 -22.117188 20.992188 -23 24.359375 -23.875 C 26.160156 -24.34375 27.613281 -24.847656 28.71875 -25.390625 C 29.820312 -25.929688 30.84375 -26.453125 31.78125 -26.953125 C 32.394531 -27.285156 32.75 -27.578125 32.84375 -27.828125 C 32.9375 -28.078125 32.984375 -28.3125 32.984375 -28.53125 L 32.984375 -37.96875 C 32.984375 -39.164062 32.8125 -40.28125 32.46875 -41.3125 C 32.125 -42.34375 31.609375 -43.234375 30.921875 -43.984375 C 30.234375 -44.742188 29.398438 -45.34375 28.421875 -45.78125 C 27.441406 -46.21875 26.335938 -46.4375 25.109375 -46.4375 C 24.066406 -46.4375 23.09375 -46.253906 22.1875 -45.890625 C 21.28125 -45.523438 20.5 -45 19.84375 -44.3125 C 19.195312 -43.625 18.679688 -42.8125 18.296875 -41.875 C 17.921875 -40.9375 17.734375 -39.867188 17.734375 -38.671875 C 17.734375 -38.566406 17.742188 -38.40625 17.765625 -38.1875 C 17.785156 -37.96875 17.8125 -37.738281 17.84375 -37.5 C 17.882812 -37.269531 17.921875 -37.0625 17.953125 -36.875 C 17.992188 -36.695312 18.015625 -36.59375 18.015625 -36.5625 C 17.972656 -36.488281 17.671875 -36.34375 17.109375 -36.125 C 16.554688 -35.90625 15.867188 -35.660156 15.046875 -35.390625 C 14.234375 -35.117188 13.335938 -34.847656 12.359375 -34.578125 C 11.390625 -34.304688 10.460938 -34.046875 9.578125 -33.796875 C 8.691406 -33.546875 7.910156 -33.316406 7.234375 -33.109375 C 6.566406 -32.910156 6.109375 -32.796875 5.859375 -32.765625 C 5.460938 -32.765625 5.21875 -32.972656 5.125 -33.390625 C 5.03125 -33.804688 4.984375 -34.210938 4.984375 -34.609375 C 4.984375 -36.703125 5.613281 -38.742188 6.875 -40.734375 C 8.144531 -42.722656 9.835938 -44.484375 11.953125 -46.015625 C 14.078125 -47.554688 16.507812 -48.796875 19.25 -49.734375 C 22 -50.679688 24.84375 -51.15625 27.78125 -51.15625 C 30.375 -51.15625 32.703125 -50.816406 34.765625 -50.140625 C 36.828125 -49.472656 38.582031 -48.550781 40.03125 -47.375 C 41.476562 -46.207031 42.582031 -44.851562 43.34375 -43.3125 C 44.101562 -41.78125 44.484375 -40.144531 44.484375 -38.40625 L 44.484375 -12.53125 C 44.484375 -11.59375 44.832031 -10.75 45.53125 -10 C 46.238281 -9.257812 47.15625 -8.890625 48.28125 -8.890625 C 48.925781 -8.890625 49.507812 -9.003906 50.03125 -9.234375 C 50.5625 -9.472656 51.035156 -9.75 51.453125 -10.0625 C 51.867188 -10.375 52.21875 -10.644531 52.5 -10.875 C 52.789062 -11.113281 53.046875 -11.234375 53.265625 -11.234375 C 53.554688 -11.234375 53.71875 -11.113281 53.75 -10.875 C 53.789062 -10.644531 53.8125 -10.4375 53.8125 -10.25 C 53.8125 -9.632812 53.726562 -9.007812 53.5625 -8.375 C 53.40625 -7.75 53.125 -7.289062 52.71875 -7 C 50.945312 -5.65625 49.375 -4.453125 48 -3.390625 C 46.632812 -2.328125 45.390625 -1.414062 44.265625 -0.65625 C 43.140625 0.101562 42.125 0.679688 41.21875 1.078125 C 40.320312 1.484375 39.472656 1.6875 38.671875 1.6875 C 37.953125 1.6875 37.3125 1.484375 36.75 1.078125 C 36.1875 0.679688 35.695312 0.195312 35.28125 -0.375 C 34.863281 -0.957031 34.507812 -1.582031 34.21875 -2.25 C 33.9375 -2.914062 33.695312 -3.535156 33.5 -4.109375 C 33.300781 -4.691406 33.144531 -5.164062 33.03125 -5.53125 C 32.925781 -5.894531 32.835938 -6.054688 32.765625 -6.015625 Z M 16.4375 -10.796875 C 16.4375 -9.816406 16.625 -9.019531 17 -8.40625 C 17.382812 -7.789062 17.882812 -7.320312 18.5 -7 C 19.113281 -6.675781 19.804688 -6.445312 20.578125 -6.3125 C 21.359375 -6.1875 22.164062 -6.125 23 -6.125 C 23.757812 -6.125 24.695312 -6.3125 25.8125 -6.6875 C 26.9375 -7.070312 28.03125 -7.582031 29.09375 -8.21875 C 30.164062 -8.851562 31.082031 -9.578125 31.84375 -10.390625 C 32.601562 -11.203125 32.984375 -12.023438 32.984375 -12.859375 L 32.984375 -21.8125 C 32.984375 -22.207031 32.835938 -22.40625 32.546875 -22.40625 C 32.472656 -22.40625 32.398438 -22.382812 32.328125 -22.34375 L 19.75 -16.484375 C 19.238281 -16.128906 18.773438 -15.796875 18.359375 -15.484375 C 17.941406 -15.179688 17.585938 -14.820312 17.296875 -14.40625 C 17.015625 -13.988281 16.800781 -13.5 16.65625 -12.9375 C 16.507812 -12.375 16.4375 -11.660156 16.4375 -10.796875 Z M 16.4375 -10.796875 "/></g></g><g transform="translate(551.342652, 116.144044)"><g><path d="M 8.1875 -41.828125 L 4.125 -41.828125 C 3.613281 -41.828125 3.210938 -41.953125 2.921875 -42.203125 C 2.640625 -42.453125 2.476562 -42.722656 2.4375 -43.015625 C 2.4375 -43.191406 2.472656 -43.390625 2.546875 -43.609375 C 2.617188 -43.828125 2.710938 -43.972656 2.828125 -44.046875 C 3.546875 -44.515625 4.328125 -45.066406 5.171875 -45.703125 C 6.023438 -46.335938 6.867188 -47 7.703125 -47.6875 C 8.535156 -48.375 9.347656 -49.054688 10.140625 -49.734375 C 10.941406 -50.421875 11.648438 -51.054688 12.265625 -51.640625 C 12.617188 -52.035156 13.113281 -52.628906 13.75 -53.421875 C 14.382812 -54.222656 15.109375 -55.007812 15.921875 -55.78125 C 16.734375 -56.5625 17.609375 -57.25 18.546875 -57.84375 C 19.492188 -58.445312 20.453125 -58.75 21.421875 -58.75 C 21.640625 -58.75 21.894531 -58.675781 22.1875 -58.53125 C 22.476562 -58.382812 22.625 -58.203125 22.625 -57.984375 C 22.625 -57.734375 22.554688 -57.34375 22.421875 -56.8125 C 22.296875 -56.289062 22.144531 -55.703125 21.96875 -55.046875 C 21.789062 -54.398438 21.59375 -53.710938 21.375 -52.984375 C 21.15625 -52.265625 20.957031 -51.5625 20.78125 -50.875 C 20.78125 -50.59375 20.820312 -50.359375 20.90625 -50.171875 C 21 -49.992188 21.242188 -49.882812 21.640625 -49.84375 L 35.46875 -49.84375 C 36.050781 -49.84375 36.453125 -49.742188 36.671875 -49.546875 C 36.890625 -49.347656 37.050781 -49.085938 37.15625 -48.765625 C 37.226562 -48.585938 37.300781 -48.21875 37.375 -47.65625 C 37.445312 -47.09375 37.519531 -46.476562 37.59375 -45.8125 C 37.664062 -45.144531 37.726562 -44.472656 37.78125 -43.796875 C 37.832031 -43.128906 37.859375 -42.578125 37.859375 -42.140625 C 37.859375 -41.929688 37.710938 -41.828125 37.421875 -41.828125 L 21.09375 -41.828125 C 20.914062 -41.828125 20.816406 -41.789062 20.796875 -41.71875 C 20.785156 -41.644531 20.78125 -41.515625 20.78125 -41.328125 L 20.78125 -14.375 C 20.78125 -13.21875 20.921875 -12.203125 21.203125 -11.328125 C 21.492188 -10.460938 21.863281 -9.738281 22.3125 -9.15625 C 22.769531 -8.582031 23.285156 -8.148438 23.859375 -7.859375 C 24.441406 -7.578125 25.023438 -7.4375 25.609375 -7.4375 C 27.265625 -7.4375 28.617188 -7.675781 29.671875 -8.15625 C 30.722656 -8.644531 31.625 -9.175781 32.375 -9.75 C 33.132812 -10.332031 33.804688 -10.867188 34.390625 -11.359375 C 34.972656 -11.847656 35.625 -12.09375 36.34375 -12.09375 C 36.851562 -12.09375 37.148438 -11.894531 37.234375 -11.5 C 37.328125 -11.101562 37.375 -10.796875 37.375 -10.578125 C 37.375 -10.109375 37.3125 -9.738281 37.1875 -9.46875 C 37.0625 -9.195312 36.960938 -8.988281 36.890625 -8.84375 C 36.847656 -8.769531 36.644531 -8.460938 36.28125 -7.921875 C 35.925781 -7.378906 35.441406 -6.726562 34.828125 -5.96875 C 34.210938 -5.207031 33.460938 -4.390625 32.578125 -3.515625 C 31.691406 -2.648438 30.703125 -1.847656 29.609375 -1.109375 C 28.523438 -0.367188 27.34375 0.242188 26.0625 0.734375 C 24.78125 1.222656 23.4375 1.46875 22.03125 1.46875 C 20.070312 1.46875 18.242188 1.101562 16.546875 0.375 C 14.847656 -0.34375 13.382812 -1.304688 12.15625 -2.515625 C 10.925781 -3.734375 9.957031 -5.117188 9.25 -6.671875 C 8.539062 -8.222656 8.1875 -9.832031 8.1875 -11.5 Z M 8.1875 -41.828125 "/></g></g><g transform="translate(590.560397, 116.144044)"><g><path d="M 30.484375 -1.625 C 30.484375 -1.40625 30.445312 -1.097656 30.375 -0.703125 C 30.300781 -0.304688 30.15625 -0.0703125 29.9375 0 L 1.625 0 C 1.40625 -0.0703125 1.257812 -0.304688 1.1875 -0.703125 C 1.113281 -1.097656 1.078125 -1.40625 1.078125 -1.625 C 1.078125 -1.8125 1.128906 -2.101562 1.234375 -2.5 C 1.347656 -2.894531 1.476562 -3.128906 1.625 -3.203125 C 2.09375 -3.421875 2.757812 -3.59375 3.625 -3.71875 C 4.5 -3.84375 5.367188 -4.09375 6.234375 -4.46875 C 7.109375 -4.851562 7.867188 -5.453125 8.515625 -6.265625 C 9.171875 -7.078125 9.5 -8.28125 9.5 -9.875 L 9.5 -73.125 C 9.5 -73.988281 9.257812 -74.664062 8.78125 -75.15625 C 8.3125 -75.644531 7.710938 -76.015625 6.984375 -76.265625 C 6.265625 -76.515625 5.488281 -76.722656 4.65625 -76.890625 C 3.832031 -77.054688 3.039062 -77.25 2.28125 -77.46875 C 1.8125 -77.644531 1.578125 -78.148438 1.578125 -78.984375 C 1.578125 -79.160156 1.628906 -79.398438 1.734375 -79.703125 C 1.847656 -80.015625 2.066406 -80.265625 2.390625 -80.453125 L 20.34375 -88.90625 C 20.488281 -88.976562 20.648438 -89.050781 20.828125 -89.125 C 21.003906 -89.195312 21.203125 -89.234375 21.421875 -89.234375 C 21.710938 -89.234375 21.894531 -89.132812 21.96875 -88.9375 C 22.039062 -88.738281 22.078125 -88.40625 22.078125 -87.9375 L 22.078125 -9.875 C 22.078125 -8.28125 22.398438 -7.078125 23.046875 -6.265625 C 23.703125 -5.453125 24.460938 -4.851562 25.328125 -4.46875 C 26.203125 -4.09375 27.070312 -3.84375 27.9375 -3.71875 C 28.800781 -3.59375 29.46875 -3.421875 29.9375 -3.203125 C 30.082031 -3.128906 30.207031 -2.894531 30.3125 -2.5 C 30.425781 -2.101562 30.484375 -1.8125 30.484375 -1.625 Z M 30.484375 -1.625 "/></g></g><g transform="translate(622.943515, 116.144044)"><g><path d="M 3.796875 0 C 3.578125 -0.0703125 3.429688 -0.316406 3.359375 -0.734375 C 3.285156 -1.148438 3.25 -1.46875 3.25 -1.6875 C 3.25 -1.863281 3.300781 -2.148438 3.40625 -2.546875 C 3.519531 -2.941406 3.648438 -3.175781 3.796875 -3.25 C 4.265625 -3.46875 4.929688 -3.640625 5.796875 -3.765625 C 6.671875 -3.890625 7.539062 -4.140625 8.40625 -4.515625 C 9.269531 -4.898438 10.023438 -5.5 10.671875 -6.3125 C 11.328125 -7.132812 11.65625 -8.335938 11.65625 -9.921875 L 11.65625 -35.96875 C 11.65625 -36.832031 11.421875 -37.507812 10.953125 -38 C 10.484375 -38.488281 9.882812 -38.859375 9.15625 -39.109375 C 8.4375 -39.359375 7.660156 -39.566406 6.828125 -39.734375 C 6.003906 -39.898438 5.210938 -40.085938 4.453125 -40.296875 C 4.234375 -40.367188 4.0625 -40.46875 3.9375 -40.59375 C 3.8125 -40.726562 3.75 -40.992188 3.75 -41.390625 C 3.75 -41.566406 3.800781 -41.742188 3.90625 -41.921875 C 4.007812 -42.109375 4.226562 -42.289062 4.5625 -42.46875 L 22.515625 -50.9375 C 22.660156 -51.007812 22.8125 -51.082031 22.96875 -51.15625 C 23.132812 -51.226562 23.253906 -51.265625 23.328125 -51.265625 C 23.941406 -51.265625 24.25 -50.828125 24.25 -49.953125 L 24.25 -9.921875 C 24.25 -8.335938 24.570312 -7.132812 25.21875 -6.3125 C 25.875 -5.5 26.632812 -4.898438 27.5 -4.515625 C 28.363281 -4.140625 29.226562 -3.890625 30.09375 -3.765625 C 30.96875 -3.640625 31.640625 -3.46875 32.109375 -3.25 C 32.253906 -3.175781 32.378906 -2.941406 32.484375 -2.546875 C 32.597656 -2.148438 32.65625 -1.863281 32.65625 -1.6875 C 32.65625 -1.46875 32.617188 -1.148438 32.546875 -0.734375 C 32.472656 -0.316406 32.328125 -0.0703125 32.109375 0 Z M 9.328125 -70.890625 C 9.328125 -73.210938 10.015625 -75.0625 11.390625 -76.4375 C 12.765625 -77.8125 14.609375 -78.5 16.921875 -78.5 C 19.234375 -78.5 21.078125 -77.8125 22.453125 -76.4375 C 23.828125 -75.0625 24.515625 -73.210938 24.515625 -70.890625 C 24.515625 -68.578125 23.828125 -66.742188 22.453125 -65.390625 C 21.078125 -64.035156 19.234375 -63.359375 16.921875 -63.359375 C 14.609375 -63.359375 12.765625 -64.035156 11.390625 -65.390625 C 10.015625 -66.742188 9.328125 -68.578125 9.328125 -70.890625 Z M 9.328125 -70.890625 "/></g></g><g transform="translate(658.310003, 116.144044)"><g><path d="M 2.171875 -1.625 C 2.171875 -1.8125 2.222656 -2.109375 2.328125 -2.515625 C 2.441406 -2.929688 2.570312 -3.175781 2.71875 -3.25 C 3.1875 -3.46875 3.851562 -3.628906 4.71875 -3.734375 C 5.582031 -3.847656 6.445312 -4.09375 7.3125 -4.46875 C 8.1875 -4.851562 8.945312 -5.453125 9.59375 -6.265625 C 10.25 -7.078125 10.578125 -8.28125 10.578125 -9.875 L 10.578125 -41.28125 C 10.578125 -41.675781 10.359375 -41.875 9.921875 -41.875 L 4.015625 -41.875 C 3.578125 -41.875 3.160156 -42.007812 2.765625 -42.28125 C 2.367188 -42.550781 2.171875 -42.941406 2.171875 -43.453125 C 2.171875 -43.847656 2.378906 -44.191406 2.796875 -44.484375 C 3.210938 -44.773438 3.726562 -45.0625 4.34375 -45.34375 C 4.957031 -45.632812 5.632812 -45.914062 6.375 -46.1875 C 7.113281 -46.457031 7.789062 -46.765625 8.40625 -47.109375 C 9.019531 -47.453125 9.535156 -47.835938 9.953125 -48.265625 C 10.367188 -48.703125 10.578125 -49.226562 10.578125 -49.84375 L 10.578125 -51.640625 C 10.578125 -56.703125 11.226562 -61.582031 12.53125 -66.28125 C 13.832031 -70.988281 15.789062 -75.148438 18.40625 -78.765625 C 21.03125 -82.378906 24.304688 -85.269531 28.234375 -87.4375 C 32.160156 -89.613281 36.742188 -90.703125 41.984375 -90.703125 C 42.492188 -90.703125 43.398438 -90.554688 44.703125 -90.265625 C 46.003906 -89.972656 47.335938 -89.570312 48.703125 -89.0625 C 50.078125 -88.5625 51.289062 -87.96875 52.34375 -87.28125 C 53.394531 -86.59375 53.921875 -85.851562 53.921875 -85.0625 C 53.921875 -84.769531 53.875 -84.515625 53.78125 -84.296875 C 53.6875 -84.078125 53.585938 -83.804688 53.484375 -83.484375 C 53.410156 -83.304688 53.21875 -82.890625 52.90625 -82.234375 C 52.601562 -81.585938 52.289062 -80.875 51.96875 -80.09375 C 51.644531 -79.3125 51.328125 -78.578125 51.015625 -77.890625 C 50.710938 -77.203125 50.523438 -76.769531 50.453125 -76.59375 C 50.378906 -76.445312 50.242188 -76.265625 50.046875 -76.046875 C 49.847656 -75.828125 49.640625 -75.71875 49.421875 -75.71875 C 49.347656 -75.71875 49.265625 -75.742188 49.171875 -75.796875 C 49.078125 -75.859375 48.851562 -76.035156 48.5 -76.328125 C 47.664062 -77.015625 46.722656 -77.769531 45.671875 -78.59375 C 44.617188 -79.425781 43.492188 -80.210938 42.296875 -80.953125 C 41.109375 -81.703125 39.863281 -82.328125 38.5625 -82.828125 C 37.257812 -83.335938 35.941406 -83.59375 34.609375 -83.59375 C 31.753906 -83.59375 29.554688 -83.175781 28.015625 -82.34375 C 26.484375 -81.507812 25.351562 -80.421875 24.625 -79.078125 C 23.90625 -77.742188 23.476562 -76.253906 23.34375 -74.609375 C 23.21875 -72.960938 23.15625 -71.3125 23.15625 -69.65625 L 23.15625 -50.34375 C 23.15625 -50.125 23.203125 -49.992188 23.296875 -49.953125 C 23.390625 -49.921875 23.523438 -49.90625 23.703125 -49.90625 L 34.28125 -49.90625 C 35.289062 -49.90625 35.945312 -49.804688 36.25 -49.609375 C 36.5625 -49.410156 36.789062 -49.039062 36.9375 -48.5 C 37.15625 -47.664062 37.316406 -46.738281 37.421875 -45.71875 C 37.535156 -44.707031 37.59375 -43.804688 37.59375 -43.015625 C 37.59375 -42.546875 37.5 -42.238281 37.3125 -42.09375 C 37.132812 -41.945312 36.757812 -41.875 36.1875 -41.875 L 23.875 -41.875 C 23.800781 -41.875 23.660156 -41.851562 23.453125 -41.8125 C 23.253906 -41.78125 23.15625 -41.617188 23.15625 -41.328125 L 23.15625 -10.953125 C 23.15625 -9.367188 23.550781 -8.078125 24.34375 -7.078125 C 25.144531 -6.085938 26.1875 -5.300781 27.46875 -4.71875 C 28.757812 -4.132812 30.207031 -3.742188 31.8125 -3.546875 C 33.425781 -3.347656 35.023438 -3.25 36.609375 -3.25 C 36.941406 -3.21875 37.1875 -2.984375 37.34375 -2.546875 C 37.507812 -2.117188 37.59375 -1.8125 37.59375 -1.625 C 37.59375 -1.550781 37.582031 -1.421875 37.5625 -1.234375 C 37.539062 -1.054688 37.503906 -0.878906 37.453125 -0.703125 C 37.398438 -0.523438 37.300781 -0.363281 37.15625 -0.21875 C 37.007812 -0.0703125 36.828125 0 36.609375 0 L 2.71875 0 C 2.5 -0.0703125 2.351562 -0.304688 2.28125 -0.703125 C 2.207031 -1.097656 2.171875 -1.40625 2.171875 -1.625 Z M 2.171875 -1.625 "/></g></g><g transform="translate(696.280158, 116.144044)"><g><path d="M 2.171875 -1.625 C 2.171875 -1.8125 2.222656 -2.109375 2.328125 -2.515625 C 2.441406 -2.929688 2.570312 -3.175781 2.71875 -3.25 C 3.1875 -3.46875 3.851562 -3.628906 4.71875 -3.734375 C 5.582031 -3.847656 6.445312 -4.09375 7.3125 -4.46875 C 8.1875 -4.851562 8.945312 -5.453125 9.59375 -6.265625 C 10.25 -7.078125 10.578125 -8.28125 10.578125 -9.875 L 10.578125 -41.28125 C 10.578125 -41.675781 10.359375 -41.875 9.921875 -41.875 L 4.015625 -41.875 C 3.578125 -41.875 3.160156 -42.007812 2.765625 -42.28125 C 2.367188 -42.550781 2.171875 -42.941406 2.171875 -43.453125 C 2.171875 -43.847656 2.378906 -44.191406 2.796875 -44.484375 C 3.210938 -44.773438 3.726562 -45.0625 4.34375 -45.34375 C 4.957031 -45.632812 5.632812 -45.914062 6.375 -46.1875 C 7.113281 -46.457031 7.789062 -46.765625 8.40625 -47.109375 C 9.019531 -47.453125 9.535156 -47.835938 9.953125 -48.265625 C 10.367188 -48.703125 10.578125 -49.226562 10.578125 -49.84375 L 10.578125 -51.640625 C 10.578125 -56.703125 11.226562 -61.582031 12.53125 -66.28125 C 13.832031 -70.988281 15.789062 -75.148438 18.40625 -78.765625 C 21.03125 -82.378906 24.304688 -85.269531 28.234375 -87.4375 C 32.160156 -89.613281 36.742188 -90.703125 41.984375 -90.703125 C 42.492188 -90.703125 43.398438 -90.554688 44.703125 -90.265625 C 46.003906 -89.972656 47.335938 -89.570312 48.703125 -89.0625 C 50.078125 -88.5625 51.289062 -87.96875 52.34375 -87.28125 C 53.394531 -86.59375 53.921875 -85.851562 53.921875 -85.0625 C 53.921875 -84.769531 53.875 -84.515625 53.78125 -84.296875 C 53.6875 -84.078125 53.585938 -83.804688 53.484375 -83.484375 C 53.410156 -83.304688 53.21875 -82.890625 52.90625 -82.234375 C 52.601562 -81.585938 52.289062 -80.875 51.96875 -80.09375 C 51.644531 -79.3125 51.328125 -78.578125 51.015625 -77.890625 C 50.710938 -77.203125 50.523438 -76.769531 50.453125 -76.59375 C 50.378906 -76.445312 50.242188 -76.265625 50.046875 -76.046875 C 49.847656 -75.828125 49.640625 -75.71875 49.421875 -75.71875 C 49.347656 -75.71875 49.265625 -75.742188 49.171875 -75.796875 C 49.078125 -75.859375 48.851562 -76.035156 48.5 -76.328125 C 47.664062 -77.015625 46.722656 -77.769531 45.671875 -78.59375 C 44.617188 -79.425781 43.492188 -80.210938 42.296875 -80.953125 C 41.109375 -81.703125 39.863281 -82.328125 38.5625 -82.828125 C 37.257812 -83.335938 35.941406 -83.59375 34.609375 -83.59375 C 31.753906 -83.59375 29.554688 -83.175781 28.015625 -82.34375 C 26.484375 -81.507812 25.351562 -80.421875 24.625 -79.078125 C 23.90625 -77.742188 23.476562 -76.253906 23.34375 -74.609375 C 23.21875 -72.960938 23.15625 -71.3125 23.15625 -69.65625 L 23.15625 -50.34375 C 23.15625 -50.125 23.203125 -49.992188 23.296875 -49.953125 C 23.390625 -49.921875 23.523438 -49.90625 23.703125 -49.90625 L 34.28125 -49.90625 C 35.289062 -49.90625 35.945312 -49.804688 36.25 -49.609375 C 36.5625 -49.410156 36.789062 -49.039062 36.9375 -48.5 C 37.15625 -47.664062 37.316406 -46.738281 37.421875 -45.71875 C 37.535156 -44.707031 37.59375 -43.804688 37.59375 -43.015625 C 37.59375 -42.546875 37.5 -42.238281 37.3125 -42.09375 C 37.132812 -41.945312 36.757812 -41.875 36.1875 -41.875 L 23.875 -41.875 C 23.800781 -41.875 23.660156 -41.851562 23.453125 -41.8125 C 23.253906 -41.78125 23.15625 -41.617188 23.15625 -41.328125 L 23.15625 -10.953125 C 23.15625 -9.367188 23.550781 -8.078125 24.34375 -7.078125 C 25.144531 -6.085938 26.1875 -5.300781 27.46875 -4.71875 C 28.757812 -4.132812 30.207031 -3.742188 31.8125 -3.546875 C 33.425781 -3.347656 35.023438 -3.25 36.609375 -3.25 C 36.941406 -3.21875 37.1875 -2.984375 37.34375 -2.546875 C 37.507812 -2.117188 37.59375 -1.8125 37.59375 -1.625 C 37.59375 -1.550781 37.582031 -1.421875 37.5625 -1.234375 C 37.539062 -1.054688 37.503906 -0.878906 37.453125 -0.703125 C 37.398438 -0.523438 37.300781 -0.363281 37.15625 -0.21875 C 37.007812 -0.0703125 36.828125 0 36.609375 0 L 2.71875 0 C 2.5 -0.0703125 2.351562 -0.304688 2.28125 -0.703125 C 2.207031 -1.097656 2.171875 -1.40625 2.171875 -1.625 Z M 2.171875 -1.625 "/></g></g></g><g fill="#ffffff" fill-opacity="1"><g transform="translate(35.754436, 247.335839)"><g><path d="M 13.34375 -67 C 13.34375 -68.363281 13.097656 -69.472656 12.609375 -70.328125 C 12.117188 -71.179688 11.421875 -71.84375 10.515625 -72.3125 C 9.617188 -72.78125 8.519531 -73.09375 7.21875 -73.25 C 5.914062 -73.414062 4.453125 -73.5 2.828125 -73.5 C 2.535156 -73.5 2.390625 -73.644531 2.390625 -73.9375 L 2.390625 -76.046875 C 2.390625 -76.335938 2.535156 -76.484375 2.828125 -76.484375 L 37.15625 -76.484375 C 37.332031 -76.484375 37.445312 -76.425781 37.5 -76.3125 C 37.5625 -76.207031 37.59375 -76.117188 37.59375 -76.046875 L 37.59375 -73.9375 C 37.59375 -73.863281 37.5625 -73.769531 37.5 -73.65625 C 37.445312 -73.550781 37.332031 -73.5 37.15625 -73.5 C 36.03125 -73.5 34.960938 -73.414062 33.953125 -73.25 C 32.941406 -73.09375 32.054688 -72.742188 31.296875 -72.203125 C 30.535156 -71.660156 29.925781 -70.878906 29.46875 -69.859375 C 29.019531 -68.847656 28.796875 -67.476562 28.796875 -65.75 L 28.796875 0.546875 C 28.796875 3.222656 28.535156 5.925781 28.015625 8.65625 C 27.492188 11.382812 26.695312 14.015625 25.625 16.546875 C 24.5625 19.078125 23.21875 21.441406 21.59375 23.640625 C 19.96875 25.847656 18.066406 27.773438 15.890625 29.421875 C 13.722656 31.066406 11.273438 32.359375 8.546875 33.296875 C 5.816406 34.242188 2.785156 34.71875 -0.546875 34.71875 C -5.066406 34.71875 -8.351562 34.179688 -10.40625 33.109375 C -12.46875 32.046875 -13.519531 30.679688 -13.5625 29.015625 C -13.5625 28.253906 -13.390625 27.539062 -13.046875 26.875 C -12.703125 26.207031 -12.265625 25.617188 -11.734375 25.109375 C -11.210938 24.609375 -10.625 24.210938 -9.96875 23.921875 C -9.320312 23.628906 -8.675781 23.484375 -8.03125 23.484375 C -6.945312 23.484375 -6.003906 23.609375 -5.203125 23.859375 C -4.410156 24.117188 -3.710938 24.4375 -3.109375 24.8125 C -2.515625 25.195312 -1.992188 25.613281 -1.546875 26.0625 C -1.097656 26.519531 -0.628906 26.9375 -0.140625 27.3125 C 0.347656 27.6875 0.851562 28 1.375 28.25 C 1.90625 28.507812 2.550781 28.640625 3.3125 28.640625 C 4.9375 28.640625 6.316406 28.3125 7.453125 27.65625 C 8.597656 27.007812 9.539062 26.113281 10.28125 24.96875 C 11.019531 23.832031 11.597656 22.503906 12.015625 20.984375 C 12.429688 19.472656 12.738281 17.859375 12.9375 16.140625 C 13.132812 14.421875 13.25 12.644531 13.28125 10.8125 C 13.320312 8.988281 13.34375 7.191406 13.34375 5.421875 Z M 13.34375 -67 "/></g></g><g transform="translate(78.226766, 247.335839)"><g><path d="M 26.421875 -1.078125 C 25.222656 -0.253906 23.8125 0.390625 22.1875 0.859375 C 20.5625 1.335938 18.929688 1.578125 17.296875 1.578125 C 12.890625 1.578125 9.535156 0.582031 7.234375 -1.40625 C 4.941406 -3.394531 3.796875 -6.09375 3.796875 -9.5 C 3.796875 -11.445312 4.238281 -13.125 5.125 -14.53125 C 6.007812 -15.945312 7.316406 -17.195312 9.046875 -18.28125 C 10.785156 -19.363281 12.929688 -20.347656 15.484375 -21.234375 C 18.035156 -22.117188 20.992188 -23 24.359375 -23.875 C 26.160156 -24.34375 27.613281 -24.847656 28.71875 -25.390625 C 29.820312 -25.929688 30.84375 -26.453125 31.78125 -26.953125 C 32.394531 -27.285156 32.75 -27.578125 32.84375 -27.828125 C 32.9375 -28.078125 32.984375 -28.3125 32.984375 -28.53125 L 32.984375 -37.96875 C 32.984375 -39.164062 32.8125 -40.28125 32.46875 -41.3125 C 32.125 -42.34375 31.609375 -43.234375 30.921875 -43.984375 C 30.234375 -44.742188 29.398438 -45.34375 28.421875 -45.78125 C 27.441406 -46.21875 26.335938 -46.4375 25.109375 -46.4375 C 24.066406 -46.4375 23.09375 -46.253906 22.1875 -45.890625 C 21.28125 -45.523438 20.5 -45 19.84375 -44.3125 C 19.195312 -43.625 18.679688 -42.8125 18.296875 -41.875 C 17.921875 -40.9375 17.734375 -39.867188 17.734375 -38.671875 C 17.734375 -38.566406 17.742188 -38.40625 17.765625 -38.1875 C 17.785156 -37.96875 17.8125 -37.738281 17.84375 -37.5 C 17.882812 -37.269531 17.921875 -37.0625 17.953125 -36.875 C 17.992188 -36.695312 18.015625 -36.59375 18.015625 -36.5625 C 17.972656 -36.488281 17.671875 -36.34375 17.109375 -36.125 C 16.554688 -35.90625 15.867188 -35.660156 15.046875 -35.390625 C 14.234375 -35.117188 13.335938 -34.847656 12.359375 -34.578125 C 11.390625 -34.304688 10.460938 -34.046875 9.578125 -33.796875 C 8.691406 -33.546875 7.910156 -33.316406 7.234375 -33.109375 C 6.566406 -32.910156 6.109375 -32.796875 5.859375 -32.765625 C 5.460938 -32.765625 5.21875 -32.972656 5.125 -33.390625 C 5.03125 -33.804688 4.984375 -34.210938 4.984375 -34.609375 C 4.984375 -36.703125 5.613281 -38.742188 6.875 -40.734375 C 8.144531 -42.722656 9.835938 -44.484375 11.953125 -46.015625 C 14.078125 -47.554688 16.507812 -48.796875 19.25 -49.734375 C 22 -50.679688 24.84375 -51.15625 27.78125 -51.15625 C 30.375 -51.15625 32.703125 -50.816406 34.765625 -50.140625 C 36.828125 -49.472656 38.582031 -48.550781 40.03125 -47.375 C 41.476562 -46.207031 42.582031 -44.851562 43.34375 -43.3125 C 44.101562 -41.78125 44.484375 -40.144531 44.484375 -38.40625 L 44.484375 -12.53125 C 44.484375 -11.59375 44.832031 -10.75 45.53125 -10 C 46.238281 -9.257812 47.15625 -8.890625 48.28125 -8.890625 C 48.925781 -8.890625 49.507812 -9.003906 50.03125 -9.234375 C 50.5625 -9.472656 51.035156 -9.75 51.453125 -10.0625 C 51.867188 -10.375 52.21875 -10.644531 52.5 -10.875 C 52.789062 -11.113281 53.046875 -11.234375 53.265625 -11.234375 C 53.554688 -11.234375 53.71875 -11.113281 53.75 -10.875 C 53.789062 -10.644531 53.8125 -10.4375 53.8125 -10.25 C 53.8125 -9.632812 53.726562 -9.007812 53.5625 -8.375 C 53.40625 -7.75 53.125 -7.289062 52.71875 -7 C 50.945312 -5.65625 49.375 -4.453125 48 -3.390625 C 46.632812 -2.328125 45.390625 -1.414062 44.265625 -0.65625 C 43.140625 0.101562 42.125 0.679688 41.21875 1.078125 C 40.320312 1.484375 39.472656 1.6875 38.671875 1.6875 C 37.953125 1.6875 37.3125 1.484375 36.75 1.078125 C 36.1875 0.679688 35.695312 0.195312 35.28125 -0.375 C 34.863281 -0.957031 34.507812 -1.582031 34.21875 -2.25 C 33.9375 -2.914062 33.695312 -3.535156 33.5 -4.109375 C 33.300781 -4.691406 33.144531 -5.164062 33.03125 -5.53125 C 32.925781 -5.894531 32.835938 -6.054688 32.765625 -6.015625 Z M 16.4375 -10.796875 C 16.4375 -9.816406 16.625 -9.019531 17 -8.40625 C 17.382812 -7.789062 17.882812 -7.320312 18.5 -7 C 19.113281 -6.675781 19.804688 -6.445312 20.578125 -6.3125 C 21.359375 -6.1875 22.164062 -6.125 23 -6.125 C 23.757812 -6.125 24.695312 -6.3125 25.8125 -6.6875 C 26.9375 -7.070312 28.03125 -7.582031 29.09375 -8.21875 C 30.164062 -8.851562 31.082031 -9.578125 31.84375 -10.390625 C 32.601562 -11.203125 32.984375 -12.023438 32.984375 -12.859375 L 32.984375 -21.8125 C 32.984375 -22.207031 32.835938 -22.40625 32.546875 -22.40625 C 32.472656 -22.40625 32.398438 -22.382812 32.328125 -22.34375 L 19.75 -16.484375 C 19.238281 -16.128906 18.773438 -15.796875 18.359375 -15.484375 C 17.941406 -15.179688 17.585938 -14.820312 17.296875 -14.40625 C 17.015625 -13.988281 16.800781 -13.5 16.65625 -12.9375 C 16.507812 -12.375 16.4375 -11.660156 16.4375 -10.796875 Z M 16.4375 -10.796875 "/></g></g><g transform="translate(133.391977, 247.335839)"><g><path d="M 4.875 -22.953125 C 4.914062 -28.191406 5.710938 -32.609375 7.265625 -36.203125 C 8.816406 -39.804688 10.894531 -42.707031 13.5 -44.90625 C 16.101562 -47.113281 19.132812 -48.707031 22.59375 -49.6875 C 26.050781 -50.664062 29.675781 -51.15625 33.46875 -51.15625 C 34.257812 -51.15625 35.207031 -51.125 36.3125 -51.0625 C 37.414062 -51.007812 38.554688 -50.898438 39.734375 -50.734375 C 40.910156 -50.578125 42.066406 -50.335938 43.203125 -50.015625 C 44.347656 -49.691406 45.378906 -49.25 46.296875 -48.6875 C 47.222656 -48.125 47.960938 -47.4375 48.515625 -46.625 C 49.078125 -45.8125 49.359375 -44.828125 49.359375 -43.671875 C 49.359375 -42.796875 49.195312 -42.097656 48.875 -41.578125 C 48.550781 -41.054688 48.097656 -40.640625 47.515625 -40.328125 C 46.941406 -40.023438 46.273438 -39.816406 45.515625 -39.703125 C 44.753906 -39.597656 43.941406 -39.546875 43.078125 -39.546875 C 42.054688 -39.546875 41.191406 -39.71875 40.484375 -40.0625 C 39.785156 -40.40625 39.144531 -40.820312 38.5625 -41.3125 C 37.988281 -41.800781 37.445312 -42.34375 36.9375 -42.9375 C 36.4375 -43.53125 35.882812 -44.070312 35.28125 -44.5625 C 34.6875 -45.050781 34.007812 -45.46875 33.25 -45.8125 C 32.488281 -46.15625 31.566406 -46.328125 30.484375 -46.328125 C 27.953125 -46.328125 25.875 -45.679688 24.25 -44.390625 C 22.625 -43.109375 21.347656 -41.484375 20.421875 -39.515625 C 19.503906 -37.546875 18.875 -35.382812 18.53125 -33.03125 C 18.1875 -30.6875 18.015625 -28.445312 18.015625 -26.3125 C 18.015625 -23.414062 18.285156 -20.742188 18.828125 -18.296875 C 19.367188 -15.859375 20.242188 -13.753906 21.453125 -11.984375 C 22.660156 -10.210938 24.234375 -8.828125 26.171875 -7.828125 C 28.109375 -6.835938 30.453125 -6.34375 33.203125 -6.34375 C 34.210938 -6.34375 35.210938 -6.503906 36.203125 -6.828125 C 37.203125 -7.160156 38.160156 -7.601562 39.078125 -8.15625 C 40.003906 -8.71875 40.875 -9.359375 41.6875 -10.078125 C 42.5 -10.804688 43.25 -11.585938 43.9375 -12.421875 C 44.300781 -12.859375 44.65625 -13.21875 45 -13.5 C 45.34375 -13.789062 45.875 -13.9375 46.59375 -13.9375 C 47.457031 -13.9375 48.207031 -13.707031 48.84375 -13.25 C 49.476562 -12.800781 49.796875 -12.328125 49.796875 -11.828125 C 49.796875 -11.679688 49.769531 -11.488281 49.71875 -11.25 C 49.664062 -11.019531 49.472656 -10.6875 49.140625 -10.25 C 47.765625 -8.519531 46.28125 -6.929688 44.6875 -5.484375 C 43.101562 -4.035156 41.40625 -2.800781 39.59375 -1.78125 C 37.789062 -0.769531 35.847656 0.0078125 33.765625 0.5625 C 31.679688 1.125 29.46875 1.40625 27.125 1.40625 C 24.007812 1.40625 21.101562 0.710938 18.40625 -0.671875 C 15.71875 -2.066406 13.367188 -3.910156 11.359375 -6.203125 C 9.359375 -8.503906 7.773438 -11.109375 6.609375 -14.015625 C 5.453125 -16.929688 4.875 -19.910156 4.875 -22.953125 Z M 4.875 -22.953125 "/></g></g><g transform="translate(186.984139, 247.335839)"><g><path d="M 31.78125 -1.625 C 31.78125 -1.125 31.742188 -0.726562 31.671875 -0.4375 C 31.609375 -0.144531 31.46875 0 31.25 0 L 2.921875 0 C 2.566406 -0.0703125 2.390625 -0.613281 2.390625 -1.625 C 2.390625 -2.5625 2.566406 -3.101562 2.921875 -3.25 C 3.398438 -3.46875 4.070312 -3.640625 4.9375 -3.765625 C 5.800781 -3.890625 6.664062 -4.140625 7.53125 -4.515625 C 8.40625 -4.898438 9.164062 -5.5 9.8125 -6.3125 C 10.46875 -7.132812 10.796875 -8.335938 10.796875 -9.921875 L 10.796875 -73.9375 C 10.796875 -74.800781 10.5625 -75.476562 10.09375 -75.96875 C 9.625 -76.457031 9.023438 -76.828125 8.296875 -77.078125 C 7.578125 -77.335938 6.800781 -77.546875 5.96875 -77.703125 C 5.132812 -77.867188 4.335938 -78.0625 3.578125 -78.28125 C 3.359375 -78.351562 3.1875 -78.453125 3.0625 -78.578125 C 2.9375 -78.703125 2.875 -78.960938 2.875 -79.359375 C 2.875 -79.535156 2.925781 -79.710938 3.03125 -79.890625 C 3.144531 -80.078125 3.363281 -80.265625 3.6875 -80.453125 L 21.640625 -88.90625 C 21.785156 -88.976562 21.9375 -89.050781 22.09375 -89.125 C 22.257812 -89.195312 22.378906 -89.234375 22.453125 -89.234375 C 23.066406 -89.234375 23.375 -88.800781 23.375 -87.9375 L 23.375 -34.0625 C 23.375 -32.976562 23.582031 -32.304688 24 -32.046875 C 24.414062 -31.796875 24.929688 -31.671875 25.546875 -31.671875 C 26.347656 -31.671875 27.34375 -31.914062 28.53125 -32.40625 C 29.726562 -32.894531 31.003906 -33.519531 32.359375 -34.28125 C 33.710938 -35.039062 35.066406 -35.890625 36.421875 -36.828125 C 37.773438 -37.773438 38.984375 -38.707031 40.046875 -39.625 C 41.117188 -40.550781 42 -41.398438 42.6875 -42.171875 C 43.375 -42.953125 43.71875 -43.5625 43.71875 -44 C 43.71875 -44.71875 43.375 -45.203125 42.6875 -45.453125 C 42 -45.710938 41.226562 -45.921875 40.375 -46.078125 C 39.53125 -46.242188 38.765625 -46.453125 38.078125 -46.703125 C 37.390625 -46.953125 37.046875 -47.421875 37.046875 -48.109375 C 37.046875 -48.617188 37.28125 -49.046875 37.75 -49.390625 C 38.21875 -49.734375 38.722656 -49.90625 39.265625 -49.90625 L 62.109375 -49.90625 C 63.734375 -49.90625 64.546875 -49.488281 64.546875 -48.65625 C 64.546875 -48.082031 64.128906 -47.601562 63.296875 -47.21875 C 62.472656 -46.84375 61.445312 -46.472656 60.21875 -46.109375 C 58.988281 -45.742188 57.691406 -45.316406 56.328125 -44.828125 C 54.972656 -44.335938 53.789062 -43.695312 52.78125 -42.90625 L 37.21875 -30.75 C 37.21875 -30.46875 37.34375 -30.15625 37.59375 -29.8125 C 37.84375 -29.46875 38.0625 -29.203125 38.25 -29.015625 L 58.90625 -7.21875 C 59.851562 -6.238281 60.894531 -5.476562 62.03125 -4.9375 C 63.164062 -4.394531 64.238281 -3.941406 65.25 -3.578125 C 66.269531 -3.210938 67.113281 -2.90625 67.78125 -2.65625 C 68.445312 -2.40625 68.78125 -2.0625 68.78125 -1.625 C 68.78125 -1.1875 68.742188 -0.804688 68.671875 -0.484375 C 68.597656 -0.160156 68.347656 0 67.921875 0 L 38.34375 0 C 38.09375 0 37.941406 -0.144531 37.890625 -0.4375 C 37.835938 -0.726562 37.8125 -1.125 37.8125 -1.625 C 37.8125 -2.53125 37.988281 -3.070312 38.34375 -3.25 C 38.707031 -3.4375 39.085938 -3.582031 39.484375 -3.6875 C 39.890625 -3.789062 40.242188 -3.941406 40.546875 -4.140625 C 40.859375 -4.347656 41.113281 -4.613281 41.3125 -4.9375 C 41.507812 -5.257812 41.609375 -5.726562 41.609375 -6.34375 C 41.609375 -6.738281 41.351562 -7.269531 40.84375 -7.9375 C 40.34375 -8.613281 39.816406 -9.238281 39.265625 -9.8125 L 24.140625 -25.875 C 24.140625 -25.90625 24.117188 -25.941406 24.078125 -25.984375 L 24.03125 -25.984375 C 23.8125 -25.984375 23.644531 -25.710938 23.53125 -25.171875 C 23.425781 -24.628906 23.375 -24.015625 23.375 -23.328125 L 23.375 -9.921875 C 23.375 -8.335938 23.695312 -7.132812 24.34375 -6.3125 C 25 -5.5 25.757812 -4.898438 26.625 -4.515625 C 27.5 -4.140625 28.367188 -3.890625 29.234375 -3.765625 C 30.109375 -3.640625 30.78125 -3.46875 31.25 -3.25 C 31.601562 -3.101562 31.78125 -2.5625 31.78125 -1.625 Z M 31.78125 -1.625 "/></g></g><g transform="translate(256.306793, 247.335839)"><g><path d="M 10.6875 -0.328125 C 10.363281 -0.328125 10.070312 -0.234375 9.8125 -0.046875 C 9.5625 0.128906 9.316406 0.332031 9.078125 0.5625 C 8.847656 0.800781 8.625 1.007812 8.40625 1.1875 C 8.1875 1.375 7.9375 1.46875 7.65625 1.46875 L 5.703125 1.46875 C 5.628906 1.46875 5.519531 0.941406 5.375 -0.109375 C 5.226562 -1.160156 5.070312 -2.414062 4.90625 -3.875 C 4.75 -5.34375 4.613281 -6.863281 4.5 -8.4375 C 4.394531 -10.007812 4.34375 -11.320312 4.34375 -12.375 C 4.34375 -12.945312 4.550781 -13.3125 4.96875 -13.46875 C 5.382812 -13.632812 5.828125 -13.71875 6.296875 -13.71875 C 6.546875 -13.71875 6.820312 -13.628906 7.125 -13.453125 C 7.4375 -13.273438 7.726562 -13.050781 8 -12.78125 C 8.269531 -12.507812 8.515625 -12.226562 8.734375 -11.9375 C 8.953125 -11.644531 9.113281 -11.390625 9.21875 -11.171875 C 9.832031 -9.835938 10.445312 -8.625 11.0625 -7.53125 C 11.675781 -6.445312 12.378906 -5.523438 13.171875 -4.765625 C 13.972656 -4.015625 14.914062 -3.429688 16 -3.015625 C 17.082031 -2.597656 18.382812 -2.390625 19.90625 -2.390625 C 21.0625 -2.390625 22 -2.585938 22.71875 -2.984375 C 23.445312 -3.378906 24.007812 -3.898438 24.40625 -4.546875 C 24.800781 -5.203125 25.0625 -5.945312 25.1875 -6.78125 C 25.320312 -7.613281 25.390625 -8.484375 25.390625 -9.390625 C 25.390625 -11.191406 24.84375 -12.71875 23.75 -13.96875 C 22.664062 -15.21875 21.316406 -16.382812 19.703125 -17.46875 C 18.097656 -18.550781 16.347656 -19.648438 14.453125 -20.765625 C 12.554688 -21.890625 10.800781 -23.191406 9.1875 -24.671875 C 7.582031 -26.160156 6.238281 -27.925781 5.15625 -29.96875 C 4.070312 -32.007812 3.53125 -34.53125 3.53125 -37.53125 C 3.53125 -39.269531 4.070312 -40.960938 5.15625 -42.609375 C 6.238281 -44.253906 7.644531 -45.707031 9.375 -46.96875 C 11.113281 -48.238281 13.054688 -49.253906 15.203125 -50.015625 C 17.359375 -50.773438 19.503906 -51.15625 21.640625 -51.15625 C 22.765625 -51.15625 23.894531 -51.054688 25.03125 -50.859375 C 26.175781 -50.660156 27.226562 -50.429688 28.1875 -50.171875 C 29.144531 -49.921875 29.957031 -49.664062 30.625 -49.40625 C 31.289062 -49.15625 31.710938 -48.976562 31.890625 -48.875 C 32.148438 -48.695312 32.359375 -48.414062 32.515625 -48.03125 C 32.679688 -47.65625 32.789062 -47.050781 32.84375 -46.21875 C 32.894531 -45.382812 32.929688 -44.269531 32.953125 -42.875 C 32.972656 -41.488281 32.984375 -39.671875 32.984375 -37.421875 C 32.984375 -36.804688 32.753906 -36.363281 32.296875 -36.09375 C 31.847656 -35.820312 31.40625 -35.6875 30.96875 -35.6875 C 30.570312 -35.6875 30.179688 -35.757812 29.796875 -35.90625 C 29.421875 -36.050781 29.179688 -36.285156 29.078125 -36.609375 C 28.640625 -37.734375 28.148438 -38.863281 27.609375 -40 C 27.066406 -41.144531 26.441406 -42.175781 25.734375 -43.09375 C 25.035156 -44.019531 24.210938 -44.757812 23.265625 -45.3125 C 22.328125 -45.875 21.242188 -46.15625 20.015625 -46.15625 C 19.296875 -46.15625 18.570312 -46.066406 17.84375 -45.890625 C 17.125 -45.710938 16.472656 -45.359375 15.890625 -44.828125 C 15.316406 -44.304688 14.859375 -43.59375 14.515625 -42.6875 C 14.171875 -41.78125 14 -40.625 14 -39.21875 C 14 -37.988281 14.566406 -36.847656 15.703125 -35.796875 C 16.835938 -34.753906 18.253906 -33.695312 19.953125 -32.625 C 21.660156 -31.5625 23.515625 -30.414062 25.515625 -29.1875 C 27.523438 -27.957031 29.378906 -26.546875 31.078125 -24.953125 C 32.773438 -23.359375 34.191406 -21.519531 35.328125 -19.4375 C 36.472656 -17.363281 37.046875 -14.914062 37.046875 -12.09375 C 37.046875 -10 36.503906 -8.109375 35.421875 -6.421875 C 34.335938 -4.742188 32.945312 -3.328125 31.25 -2.171875 C 29.550781 -1.015625 27.660156 -0.117188 25.578125 0.515625 C 23.492188 1.148438 21.457031 1.46875 19.46875 1.46875 C 18.457031 1.46875 17.445312 1.375 16.4375 1.1875 C 15.425781 1.007812 14.503906 0.800781 13.671875 0.5625 C 12.835938 0.332031 12.148438 0.128906 11.609375 -0.046875 C 11.066406 -0.234375 10.757812 -0.328125 10.6875 -0.328125 Z M 10.6875 -0.328125 "/></g></g><g transform="translate(297.423047, 247.335839)"><g><path d="M 4.0625 -25.328125 C 4.0625 -28.734375 4.8125 -31.988281 6.3125 -35.09375 C 7.820312 -38.207031 9.84375 -40.957031 12.375 -43.34375 C 14.90625 -45.726562 17.847656 -47.625 21.203125 -49.03125 C 24.566406 -50.445312 28.113281 -51.15625 31.84375 -51.15625 C 35.75 -51.15625 39.453125 -50.484375 42.953125 -49.140625 C 46.460938 -47.804688 49.546875 -45.972656 52.203125 -43.640625 C 54.867188 -41.304688 56.976562 -38.554688 58.53125 -35.390625 C 60.082031 -32.222656 60.859375 -28.796875 60.859375 -25.109375 C 60.859375 -21.347656 60.144531 -17.847656 58.71875 -14.609375 C 57.289062 -11.378906 55.3125 -8.570312 52.78125 -6.1875 C 50.25 -3.800781 47.238281 -1.925781 43.75 -0.5625 C 40.257812 0.789062 36.453125 1.46875 32.328125 1.46875 C 28.242188 1.46875 24.472656 0.769531 21.015625 -0.625 C 17.566406 -2.019531 14.582031 -3.914062 12.0625 -6.3125 C 9.550781 -8.71875 7.585938 -11.546875 6.171875 -14.796875 C 4.765625 -18.054688 4.0625 -21.566406 4.0625 -25.328125 Z M 17.953125 -28.75 C 17.953125 -26.800781 18.097656 -24.785156 18.390625 -22.703125 C 18.679688 -20.617188 19.113281 -18.59375 19.6875 -16.625 C 20.269531 -14.65625 21.003906 -12.800781 21.890625 -11.0625 C 22.773438 -9.332031 23.832031 -7.804688 25.0625 -6.484375 C 26.289062 -5.160156 27.679688 -4.117188 29.234375 -3.359375 C 30.796875 -2.597656 32.550781 -2.21875 34.5 -2.21875 C 36.632812 -2.21875 38.46875 -2.769531 40 -3.875 C 41.539062 -4.976562 42.804688 -6.414062 43.796875 -8.1875 C 44.796875 -9.957031 45.53125 -11.945312 46 -14.15625 C 46.46875 -16.363281 46.703125 -18.570312 46.703125 -20.78125 C 46.703125 -22.550781 46.539062 -24.421875 46.21875 -26.390625 C 45.894531 -28.359375 45.40625 -30.3125 44.75 -32.25 C 44.101562 -34.1875 43.304688 -36.039062 42.359375 -37.8125 C 41.421875 -39.582031 40.328125 -41.144531 39.078125 -42.5 C 37.835938 -43.851562 36.445312 -44.925781 34.90625 -45.71875 C 33.363281 -46.519531 31.691406 -46.921875 29.890625 -46.921875 C 27.859375 -46.921875 26.09375 -46.367188 24.59375 -45.265625 C 23.09375 -44.160156 21.851562 -42.726562 20.875 -40.96875 C 19.90625 -39.21875 19.175781 -37.265625 18.6875 -35.109375 C 18.195312 -32.960938 17.953125 -30.84375 17.953125 -28.75 Z M 17.953125 -28.75 "/></g></g><g transform="translate(362.352012, 247.335839)"><g><path d="M 22.078125 -52.625 C 22.222656 -52.6875 22.375 -52.753906 22.53125 -52.828125 C 22.695312 -52.898438 22.816406 -52.9375 22.890625 -52.9375 C 23.503906 -52.9375 23.8125 -52.503906 23.8125 -51.640625 L 23.8125 -43.171875 C 23.914062 -42.816406 24.0625 -42.640625 24.25 -42.640625 C 24.425781 -42.640625 24.566406 -42.644531 24.671875 -42.65625 C 24.785156 -42.675781 24.929688 -42.742188 25.109375 -42.859375 C 27.429688 -44.046875 29.394531 -45.046875 31 -45.859375 C 32.613281 -46.671875 34.003906 -47.359375 35.171875 -47.921875 C 36.347656 -48.484375 37.394531 -48.914062 38.3125 -49.21875 C 39.238281 -49.53125 40.171875 -49.765625 41.109375 -49.921875 C 42.054688 -50.085938 43.085938 -50.1875 44.203125 -50.21875 C 45.328125 -50.257812 46.703125 -50.28125 48.328125 -50.28125 C 50.097656 -50.28125 51.632812 -49.898438 52.9375 -49.140625 C 54.238281 -48.378906 55.332031 -47.375 56.21875 -46.125 C 57.101562 -44.882812 57.828125 -43.457031 58.390625 -41.84375 C 58.953125 -40.238281 59.378906 -38.59375 59.671875 -36.90625 C 59.960938 -35.226562 60.160156 -33.566406 60.265625 -31.921875 C 60.367188 -30.273438 60.421875 -28.785156 60.421875 -27.453125 C 60.421875 -26.179688 60.394531 -25.003906 60.34375 -23.921875 C 60.289062 -22.835938 60.238281 -21.648438 60.1875 -20.359375 C 60.132812 -19.078125 60.078125 -17.625 60.015625 -16 C 59.960938 -14.375 59.9375 -12.40625 59.9375 -10.09375 C 59.9375 -9.007812 60.132812 -8.101562 60.53125 -7.375 C 60.9375 -6.65625 61.453125 -6.054688 62.078125 -5.578125 C 62.710938 -5.109375 63.410156 -4.753906 64.171875 -4.515625 C 64.929688 -4.285156 65.671875 -4.097656 66.390625 -3.953125 C 67.117188 -3.816406 67.78125 -3.703125 68.375 -3.609375 C 68.96875 -3.515625 69.429688 -3.394531 69.765625 -3.25 C 69.898438 -3.175781 70.019531 -2.941406 70.125 -2.546875 C 70.238281 -2.148438 70.296875 -1.863281 70.296875 -1.6875 C 70.296875 -1.46875 70.257812 -1.148438 70.1875 -0.734375 C 70.113281 -0.316406 69.972656 -0.0703125 69.765625 0 L 39.484375 0 C 39.273438 -0.0703125 39.132812 -0.316406 39.0625 -0.734375 C 38.988281 -1.148438 38.953125 -1.46875 38.953125 -1.6875 C 38.953125 -1.863281 39.003906 -2.148438 39.109375 -2.546875 C 39.210938 -2.941406 39.335938 -3.175781 39.484375 -3.25 C 39.960938 -3.46875 40.585938 -3.640625 41.359375 -3.765625 C 42.140625 -3.890625 42.9375 -4.171875 43.75 -4.609375 C 44.5625 -5.046875 45.300781 -5.707031 45.96875 -6.59375 C 46.632812 -7.476562 47.078125 -8.789062 47.296875 -10.53125 C 47.367188 -11.070312 47.429688 -11.578125 47.484375 -12.046875 C 47.546875 -12.515625 47.59375 -12.992188 47.625 -13.484375 C 47.664062 -13.972656 47.691406 -14.503906 47.703125 -15.078125 C 47.722656 -15.660156 47.734375 -16.332031 47.734375 -17.09375 C 47.734375 -18.71875 47.710938 -20.453125 47.671875 -22.296875 C 47.640625 -24.140625 47.625 -26.203125 47.625 -28.484375 C 47.625 -30.253906 47.539062 -32.003906 47.375 -33.734375 C 47.21875 -35.472656 46.820312 -37.03125 46.1875 -38.40625 C 45.550781 -39.78125 44.617188 -40.898438 43.390625 -41.765625 C 42.160156 -42.640625 40.460938 -43.078125 38.296875 -43.078125 C 37.535156 -43.078125 36.859375 -43.03125 36.265625 -42.9375 C 35.671875 -42.84375 34.945312 -42.632812 34.09375 -42.3125 C 33.238281 -41.988281 32.125 -41.5 30.75 -40.84375 C 29.382812 -40.195312 27.539062 -39.3125 25.21875 -38.1875 C 24.9375 -38.007812 24.640625 -37.800781 24.328125 -37.5625 C 24.023438 -37.332031 23.851562 -37.035156 23.8125 -36.671875 L 23.8125 -10.09375 C 23.8125 -8.46875 24.132812 -7.226562 24.78125 -6.375 C 25.4375 -5.519531 26.195312 -4.898438 27.0625 -4.515625 C 27.9375 -4.140625 28.804688 -3.890625 29.671875 -3.765625 C 30.535156 -3.640625 31.203125 -3.46875 31.671875 -3.25 C 31.816406 -3.175781 31.941406 -2.941406 32.046875 -2.546875 C 32.160156 -2.148438 32.21875 -1.863281 32.21875 -1.6875 C 32.21875 -1.46875 32.179688 -1.148438 32.109375 -0.734375 C 32.035156 -0.316406 31.890625 -0.0703125 31.671875 0 L 3.359375 0 C 3.140625 -0.0703125 2.992188 -0.316406 2.921875 -0.734375 C 2.859375 -1.148438 2.828125 -1.46875 2.828125 -1.6875 C 2.828125 -1.863281 2.878906 -2.148438 2.984375 -2.546875 C 3.085938 -2.941406 3.210938 -3.175781 3.359375 -3.25 C 3.828125 -3.46875 4.492188 -3.640625 5.359375 -3.765625 C 6.234375 -3.890625 7.101562 -4.140625 7.96875 -4.515625 C 8.84375 -4.898438 9.601562 -5.519531 10.25 -6.375 C 10.90625 -7.226562 11.234375 -8.46875 11.234375 -10.09375 L 11.234375 -37.640625 C 11.234375 -38.515625 10.992188 -39.191406 10.515625 -39.671875 C 10.046875 -40.160156 9.453125 -40.53125 8.734375 -40.78125 C 8.015625 -41.039062 7.238281 -41.25 6.40625 -41.40625 C 5.570312 -41.570312 4.773438 -41.765625 4.015625 -41.984375 C 3.796875 -42.054688 3.625 -42.15625 3.5 -42.28125 C 3.375 -42.40625 3.3125 -42.671875 3.3125 -43.078125 C 3.3125 -43.253906 3.363281 -43.429688 3.46875 -43.609375 C 3.582031 -43.796875 3.800781 -43.976562 4.125 -44.15625 Z M 22.078125 -52.625 "/></g></g><g transform="translate(433.735903, 247.335839)"><g/></g><g transform="translate(463.569596, 247.335839)"><g><path d="M 0.265625 -2.546875 C 0.265625 -2.835938 0.410156 -2.984375 0.703125 -2.984375 C 1.390625 -3.015625 2.191406 -3.113281 3.109375 -3.28125 C 4.035156 -3.445312 4.976562 -3.789062 5.9375 -4.3125 C 6.894531 -4.832031 7.828125 -5.609375 8.734375 -6.640625 C 9.640625 -7.671875 10.398438 -9.09375 11.015625 -10.90625 L 32.8125 -74.15625 C 32.8125 -74.113281 32.820312 -74.128906 32.84375 -74.203125 C 32.863281 -74.273438 32.875 -74.347656 32.875 -74.421875 C 32.875 -74.671875 32.773438 -74.984375 32.578125 -75.359375 C 32.378906 -75.742188 32.28125 -76.03125 32.28125 -76.21875 C 32.28125 -76.394531 32.351562 -76.484375 32.5 -76.484375 L 48.21875 -76.484375 C 48.289062 -76.453125 48.390625 -76.414062 48.515625 -76.375 C 48.648438 -76.34375 48.753906 -76.234375 48.828125 -76.046875 L 71.765625 -11.65625 C 72.128906 -10.644531 72.472656 -9.773438 72.796875 -9.046875 C 73.117188 -8.328125 73.503906 -7.6875 73.953125 -7.125 C 74.410156 -6.570312 74.984375 -6.066406 75.671875 -5.609375 C 76.359375 -5.160156 77.242188 -4.703125 78.328125 -4.234375 C 78.835938 -3.972656 79.523438 -3.695312 80.390625 -3.40625 C 81.253906 -3.125 82.085938 -2.984375 82.890625 -2.984375 C 83.066406 -2.984375 83.179688 -2.925781 83.234375 -2.8125 C 83.296875 -2.707031 83.328125 -2.601562 83.328125 -2.5 L 83.328125 -0.4375 C 83.328125 -0.363281 83.296875 -0.269531 83.234375 -0.15625 C 83.179688 -0.0507812 83.066406 0 82.890625 0 L 44.8125 0 C 44.625 0 44.503906 -0.0507812 44.453125 -0.15625 C 44.398438 -0.269531 44.375 -0.363281 44.375 -0.4375 L 44.375 -2.546875 C 44.375 -2.617188 44.398438 -2.707031 44.453125 -2.8125 C 44.503906 -2.925781 44.625 -2.984375 44.8125 -2.984375 C 44.945312 -2.984375 45.085938 -2.988281 45.234375 -3 C 45.378906 -3.019531 45.488281 -3.03125 45.5625 -3.03125 C 45.957031 -3.070312 46.523438 -3.109375 47.265625 -3.140625 C 48.015625 -3.179688 48.820312 -3.242188 49.6875 -3.328125 C 50.550781 -3.421875 51.425781 -3.566406 52.3125 -3.765625 C 53.195312 -3.960938 54 -4.25 54.71875 -4.625 C 55.445312 -5.007812 56.046875 -5.507812 56.515625 -6.125 C 56.992188 -6.738281 57.234375 -7.5 57.234375 -8.40625 C 57.234375 -8.625 57.195312 -8.878906 57.125 -9.171875 L 50.015625 -28.75 C 49.972656 -28.820312 49.90625 -28.984375 49.8125 -29.234375 C 49.726562 -29.492188 49.585938 -29.757812 49.390625 -30.03125 C 49.191406 -30.300781 48.9375 -30.539062 48.625 -30.75 C 48.320312 -30.96875 47.953125 -31.078125 47.515625 -31.078125 L 27.9375 -31.078125 C 27.46875 -31.078125 27.066406 -30.96875 26.734375 -30.75 C 26.410156 -30.539062 26.140625 -30.304688 25.921875 -30.046875 C 25.710938 -29.796875 25.539062 -29.539062 25.40625 -29.28125 C 25.28125 -29.03125 25.21875 -28.890625 25.21875 -28.859375 C 24.0625 -25.460938 23.082031 -22.597656 22.28125 -20.265625 C 21.488281 -17.929688 20.832031 -16.003906 20.3125 -14.484375 C 19.789062 -12.960938 19.382812 -11.785156 19.09375 -10.953125 C 18.800781 -10.117188 18.59375 -9.515625 18.46875 -9.140625 C 18.34375 -8.765625 18.269531 -8.53125 18.25 -8.4375 C 18.226562 -8.34375 18.21875 -8.296875 18.21875 -8.296875 C 18.21875 -8.191406 18.234375 -8.070312 18.265625 -7.9375 C 18.304688 -7.8125 18.347656 -7.695312 18.390625 -7.59375 C 18.679688 -6.6875 19.210938 -5.9375 19.984375 -5.34375 C 20.765625 -4.75 21.660156 -4.28125 22.671875 -3.9375 C 23.679688 -3.59375 24.71875 -3.347656 25.78125 -3.203125 C 26.851562 -3.054688 27.804688 -2.984375 28.640625 -2.984375 L 30.046875 -2.984375 C 30.234375 -2.984375 30.351562 -2.925781 30.40625 -2.8125 C 30.457031 -2.707031 30.484375 -2.617188 30.484375 -2.546875 L 30.484375 -0.4375 C 30.484375 -0.363281 30.457031 -0.269531 30.40625 -0.15625 C 30.351562 -0.0507812 30.234375 0 30.046875 0 L 0.703125 0 C 0.410156 0 0.265625 -0.144531 0.265625 -0.4375 Z M 28.703125 -38.890625 C 28.628906 -38.710938 28.570312 -38.53125 28.53125 -38.34375 C 28.5 -38.164062 28.484375 -37.988281 28.484375 -37.8125 C 28.484375 -37.59375 28.535156 -37.421875 28.640625 -37.296875 C 28.742188 -37.171875 28.960938 -37.109375 29.296875 -37.109375 L 45.5625 -37.109375 C 45.957031 -37.109375 46.21875 -37.1875 46.34375 -37.34375 C 46.476562 -37.507812 46.546875 -37.703125 46.546875 -37.921875 C 46.546875 -38.097656 46.523438 -38.257812 46.484375 -38.40625 C 46.453125 -38.550781 46.398438 -38.710938 46.328125 -38.890625 L 39.109375 -58.6875 C 38.929688 -59.195312 38.660156 -59.566406 38.296875 -59.796875 C 37.929688 -60.035156 37.609375 -60.15625 37.328125 -60.15625 C 37.035156 -60.15625 36.707031 -60.019531 36.34375 -59.75 C 35.976562 -59.476562 35.707031 -59.109375 35.53125 -58.640625 Z M 28.703125 -38.890625 "/></g></g><g transform="translate(547.158181, 247.335839)"><g><path d="M 25.984375 1.46875 C 25.691406 1.46875 25.445312 1.257812 25.25 0.84375 C 25.050781 0.425781 24.898438 0.0703125 24.796875 -0.21875 L 10.09375 -40.09375 C 9.476562 -41.75 8.59375 -43.203125 7.4375 -44.453125 C 6.28125 -45.703125 4.867188 -46.597656 3.203125 -47.140625 C 2.953125 -47.210938 2.644531 -47.265625 2.28125 -47.296875 C 1.914062 -47.335938 1.5625 -47.394531 1.21875 -47.46875 C 0.875 -47.539062 0.582031 -47.664062 0.34375 -47.84375 C 0.113281 -48.019531 0 -48.3125 0 -48.71875 C 0 -49.070312 0.0859375 -49.398438 0.265625 -49.703125 C 0.453125 -50.015625 0.757812 -50.171875 1.1875 -50.171875 L 29.71875 -50.171875 C 29.9375 -50.171875 30.082031 -49.976562 30.15625 -49.59375 C 30.226562 -49.21875 30.265625 -48.976562 30.265625 -48.875 C 30.265625 -48.363281 30.066406 -48.023438 29.671875 -47.859375 C 29.273438 -47.703125 28.769531 -47.601562 28.15625 -47.5625 C 27.539062 -47.53125 26.890625 -47.523438 26.203125 -47.546875 C 25.515625 -47.566406 24.863281 -47.484375 24.25 -47.296875 C 23.632812 -47.117188 23.125 -46.800781 22.71875 -46.34375 C 22.320312 -45.894531 22.125 -45.203125 22.125 -44.265625 C 22.125 -44.148438 22.175781 -43.921875 22.28125 -43.578125 C 22.394531 -43.242188 22.453125 -43.039062 22.453125 -42.96875 L 33.25 -13.453125 C 33.320312 -13.273438 33.4375 -13.015625 33.59375 -12.671875 C 33.757812 -12.328125 33.988281 -12.15625 34.28125 -12.15625 C 34.425781 -12.15625 34.578125 -12.234375 34.734375 -12.390625 C 34.898438 -12.554688 35.035156 -12.75 35.140625 -12.96875 C 35.253906 -13.1875 35.347656 -13.394531 35.421875 -13.59375 C 35.492188 -13.789062 35.546875 -13.925781 35.578125 -14 C 37.285156 -18.332031 38.71875 -21.988281 39.875 -24.96875 C 41.03125 -27.957031 41.988281 -30.445312 42.75 -32.4375 C 43.507812 -34.425781 44.09375 -35.988281 44.5 -37.125 C 44.914062 -38.269531 45.210938 -39.148438 45.390625 -39.765625 C 45.578125 -40.378906 45.6875 -40.820312 45.71875 -41.09375 C 45.757812 -41.363281 45.78125 -41.625 45.78125 -41.875 C 45.78125 -43.144531 45.378906 -44.1875 44.578125 -45 C 43.785156 -45.8125 42.8125 -46.4375 41.65625 -46.875 C 41.332031 -46.9375 40.925781 -46.96875 40.4375 -46.96875 C 39.945312 -46.96875 39.472656 -47.003906 39.015625 -47.078125 C 38.566406 -47.148438 38.171875 -47.296875 37.828125 -47.515625 C 37.492188 -47.734375 37.328125 -48.097656 37.328125 -48.609375 C 37.328125 -48.890625 37.46875 -49.175781 37.75 -49.46875 C 38.039062 -49.757812 38.332031 -49.90625 38.625 -49.90625 L 60.265625 -49.90625 C 60.484375 -49.863281 60.617188 -49.722656 60.671875 -49.484375 C 60.722656 -49.253906 60.75 -48.941406 60.75 -48.546875 C 60.75 -48.296875 60.710938 -48.109375 60.640625 -47.984375 C 60.566406 -47.859375 60.394531 -47.75 60.125 -47.65625 C 59.851562 -47.5625 59.472656 -47.476562 58.984375 -47.40625 C 58.503906 -47.332031 57.863281 -47.222656 57.0625 -47.078125 C 56.269531 -46.941406 55.570312 -46.570312 54.96875 -45.96875 C 54.375 -45.375 53.832031 -44.675781 53.34375 -43.875 C 52.863281 -43.082031 52.441406 -42.257812 52.078125 -41.40625 C 51.710938 -40.5625 51.367188 -39.796875 51.046875 -39.109375 C 48.585938 -32.816406 46.515625 -27.484375 44.828125 -23.109375 C 43.148438 -18.734375 41.75 -15.097656 40.625 -12.203125 C 39.507812 -9.304688 38.632812 -7.050781 38 -5.4375 C 37.363281 -3.832031 36.882812 -2.632812 36.5625 -1.84375 C 36.238281 -1.050781 36.039062 -0.5625 35.96875 -0.375 C 35.894531 -0.195312 35.859375 -0.109375 35.859375 -0.109375 C 35.742188 0.140625 35.585938 0.460938 35.390625 0.859375 C 35.191406 1.265625 34.945312 1.46875 34.65625 1.46875 Z M 25.984375 1.46875 "/></g></g><g transform="translate(608.452859, 247.335839)"><g><path d="M 26.421875 -1.078125 C 25.222656 -0.253906 23.8125 0.390625 22.1875 0.859375 C 20.5625 1.335938 18.929688 1.578125 17.296875 1.578125 C 12.890625 1.578125 9.535156 0.582031 7.234375 -1.40625 C 4.941406 -3.394531 3.796875 -6.09375 3.796875 -9.5 C 3.796875 -11.445312 4.238281 -13.125 5.125 -14.53125 C 6.007812 -15.945312 7.316406 -17.195312 9.046875 -18.28125 C 10.785156 -19.363281 12.929688 -20.347656 15.484375 -21.234375 C 18.035156 -22.117188 20.992188 -23 24.359375 -23.875 C 26.160156 -24.34375 27.613281 -24.847656 28.71875 -25.390625 C 29.820312 -25.929688 30.84375 -26.453125 31.78125 -26.953125 C 32.394531 -27.285156 32.75 -27.578125 32.84375 -27.828125 C 32.9375 -28.078125 32.984375 -28.3125 32.984375 -28.53125 L 32.984375 -37.96875 C 32.984375 -39.164062 32.8125 -40.28125 32.46875 -41.3125 C 32.125 -42.34375 31.609375 -43.234375 30.921875 -43.984375 C 30.234375 -44.742188 29.398438 -45.34375 28.421875 -45.78125 C 27.441406 -46.21875 26.335938 -46.4375 25.109375 -46.4375 C 24.066406 -46.4375 23.09375 -46.253906 22.1875 -45.890625 C 21.28125 -45.523438 20.5 -45 19.84375 -44.3125 C 19.195312 -43.625 18.679688 -42.8125 18.296875 -41.875 C 17.921875 -40.9375 17.734375 -39.867188 17.734375 -38.671875 C 17.734375 -38.566406 17.742188 -38.40625 17.765625 -38.1875 C 17.785156 -37.96875 17.8125 -37.738281 17.84375 -37.5 C 17.882812 -37.269531 17.921875 -37.0625 17.953125 -36.875 C 17.992188 -36.695312 18.015625 -36.59375 18.015625 -36.5625 C 17.972656 -36.488281 17.671875 -36.34375 17.109375 -36.125 C 16.554688 -35.90625 15.867188 -35.660156 15.046875 -35.390625 C 14.234375 -35.117188 13.335938 -34.847656 12.359375 -34.578125 C 11.390625 -34.304688 10.460938 -34.046875 9.578125 -33.796875 C 8.691406 -33.546875 7.910156 -33.316406 7.234375 -33.109375 C 6.566406 -32.910156 6.109375 -32.796875 5.859375 -32.765625 C 5.460938 -32.765625 5.21875 -32.972656 5.125 -33.390625 C 5.03125 -33.804688 4.984375 -34.210938 4.984375 -34.609375 C 4.984375 -36.703125 5.613281 -38.742188 6.875 -40.734375 C 8.144531 -42.722656 9.835938 -44.484375 11.953125 -46.015625 C 14.078125 -47.554688 16.507812 -48.796875 19.25 -49.734375 C 22 -50.679688 24.84375 -51.15625 27.78125 -51.15625 C 30.375 -51.15625 32.703125 -50.816406 34.765625 -50.140625 C 36.828125 -49.472656 38.582031 -48.550781 40.03125 -47.375 C 41.476562 -46.207031 42.582031 -44.851562 43.34375 -43.3125 C 44.101562 -41.78125 44.484375 -40.144531 44.484375 -38.40625 L 44.484375 -12.53125 C 44.484375 -11.59375 44.832031 -10.75 45.53125 -10 C 46.238281 -9.257812 47.15625 -8.890625 48.28125 -8.890625 C 48.925781 -8.890625 49.507812 -9.003906 50.03125 -9.234375 C 50.5625 -9.472656 51.035156 -9.75 51.453125 -10.0625 C 51.867188 -10.375 52.21875 -10.644531 52.5 -10.875 C 52.789062 -11.113281 53.046875 -11.234375 53.265625 -11.234375 C 53.554688 -11.234375 53.71875 -11.113281 53.75 -10.875 C 53.789062 -10.644531 53.8125 -10.4375 53.8125 -10.25 C 53.8125 -9.632812 53.726562 -9.007812 53.5625 -8.375 C 53.40625 -7.75 53.125 -7.289062 52.71875 -7 C 50.945312 -5.65625 49.375 -4.453125 48 -3.390625 C 46.632812 -2.328125 45.390625 -1.414062 44.265625 -0.65625 C 43.140625 0.101562 42.125 0.679688 41.21875 1.078125 C 40.320312 1.484375 39.472656 1.6875 38.671875 1.6875 C 37.953125 1.6875 37.3125 1.484375 36.75 1.078125 C 36.1875 0.679688 35.695312 0.195312 35.28125 -0.375 C 34.863281 -0.957031 34.507812 -1.582031 34.21875 -2.25 C 33.9375 -2.914062 33.695312 -3.535156 33.5 -4.109375 C 33.300781 -4.691406 33.144531 -5.164062 33.03125 -5.53125 C 32.925781 -5.894531 32.835938 -6.054688 32.765625 -6.015625 Z M 16.4375 -10.796875 C 16.4375 -9.816406 16.625 -9.019531 17 -8.40625 C 17.382812 -7.789062 17.882812 -7.320312 18.5 -7 C 19.113281 -6.675781 19.804688 -6.445312 20.578125 -6.3125 C 21.359375 -6.1875 22.164062 -6.125 23 -6.125 C 23.757812 -6.125 24.695312 -6.3125 25.8125 -6.6875 C 26.9375 -7.070312 28.03125 -7.582031 29.09375 -8.21875 C 30.164062 -8.851562 31.082031 -9.578125 31.84375 -10.390625 C 32.601562 -11.203125 32.984375 -12.023438 32.984375 -12.859375 L 32.984375 -21.8125 C 32.984375 -22.207031 32.835938 -22.40625 32.546875 -22.40625 C 32.472656 -22.40625 32.398438 -22.382812 32.328125 -22.34375 L 19.75 -16.484375 C 19.238281 -16.128906 18.773438 -15.796875 18.359375 -15.484375 C 17.941406 -15.179688 17.585938 -14.820312 17.296875 -14.40625 C 17.015625 -13.988281 16.800781 -13.5 16.65625 -12.9375 C 16.507812 -12.375 16.4375 -11.660156 16.4375 -10.796875 Z M 16.4375 -10.796875 "/></g></g><g transform="translate(663.618069, 247.335839)"><g><path d="M 22.078125 -52.625 C 22.222656 -52.6875 22.375 -52.753906 22.53125 -52.828125 C 22.695312 -52.898438 22.816406 -52.9375 22.890625 -52.9375 C 23.503906 -52.9375 23.8125 -52.503906 23.8125 -51.640625 L 23.8125 -43.171875 C 23.914062 -42.816406 24.0625 -42.640625 24.25 -42.640625 C 24.425781 -42.640625 24.566406 -42.644531 24.671875 -42.65625 C 24.785156 -42.675781 24.929688 -42.742188 25.109375 -42.859375 C 27.429688 -44.046875 29.394531 -45.046875 31 -45.859375 C 32.613281 -46.671875 34.003906 -47.359375 35.171875 -47.921875 C 36.347656 -48.484375 37.394531 -48.914062 38.3125 -49.21875 C 39.238281 -49.53125 40.171875 -49.765625 41.109375 -49.921875 C 42.054688 -50.085938 43.085938 -50.1875 44.203125 -50.21875 C 45.328125 -50.257812 46.703125 -50.28125 48.328125 -50.28125 C 50.097656 -50.28125 51.632812 -49.898438 52.9375 -49.140625 C 54.238281 -48.378906 55.332031 -47.375 56.21875 -46.125 C 57.101562 -44.882812 57.828125 -43.457031 58.390625 -41.84375 C 58.953125 -40.238281 59.378906 -38.59375 59.671875 -36.90625 C 59.960938 -35.226562 60.160156 -33.566406 60.265625 -31.921875 C 60.367188 -30.273438 60.421875 -28.785156 60.421875 -27.453125 C 60.421875 -26.179688 60.394531 -25.003906 60.34375 -23.921875 C 60.289062 -22.835938 60.238281 -21.648438 60.1875 -20.359375 C 60.132812 -19.078125 60.078125 -17.625 60.015625 -16 C 59.960938 -14.375 59.9375 -12.40625 59.9375 -10.09375 C 59.9375 -9.007812 60.132812 -8.101562 60.53125 -7.375 C 60.9375 -6.65625 61.453125 -6.054688 62.078125 -5.578125 C 62.710938 -5.109375 63.410156 -4.753906 64.171875 -4.515625 C 64.929688 -4.285156 65.671875 -4.097656 66.390625 -3.953125 C 67.117188 -3.816406 67.78125 -3.703125 68.375 -3.609375 C 68.96875 -3.515625 69.429688 -3.394531 69.765625 -3.25 C 69.898438 -3.175781 70.019531 -2.941406 70.125 -2.546875 C 70.238281 -2.148438 70.296875 -1.863281 70.296875 -1.6875 C 70.296875 -1.46875 70.257812 -1.148438 70.1875 -0.734375 C 70.113281 -0.316406 69.972656 -0.0703125 69.765625 0 L 39.484375 0 C 39.273438 -0.0703125 39.132812 -0.316406 39.0625 -0.734375 C 38.988281 -1.148438 38.953125 -1.46875 38.953125 -1.6875 C 38.953125 -1.863281 39.003906 -2.148438 39.109375 -2.546875 C 39.210938 -2.941406 39.335938 -3.175781 39.484375 -3.25 C 39.960938 -3.46875 40.585938 -3.640625 41.359375 -3.765625 C 42.140625 -3.890625 42.9375 -4.171875 43.75 -4.609375 C 44.5625 -5.046875 45.300781 -5.707031 45.96875 -6.59375 C 46.632812 -7.476562 47.078125 -8.789062 47.296875 -10.53125 C 47.367188 -11.070312 47.429688 -11.578125 47.484375 -12.046875 C 47.546875 -12.515625 47.59375 -12.992188 47.625 -13.484375 C 47.664062 -13.972656 47.691406 -14.503906 47.703125 -15.078125 C 47.722656 -15.660156 47.734375 -16.332031 47.734375 -17.09375 C 47.734375 -18.71875 47.710938 -20.453125 47.671875 -22.296875 C 47.640625 -24.140625 47.625 -26.203125 47.625 -28.484375 C 47.625 -30.253906 47.539062 -32.003906 47.375 -33.734375 C 47.21875 -35.472656 46.820312 -37.03125 46.1875 -38.40625 C 45.550781 -39.78125 44.617188 -40.898438 43.390625 -41.765625 C 42.160156 -42.640625 40.460938 -43.078125 38.296875 -43.078125 C 37.535156 -43.078125 36.859375 -43.03125 36.265625 -42.9375 C 35.671875 -42.84375 34.945312 -42.632812 34.09375 -42.3125 C 33.238281 -41.988281 32.125 -41.5 30.75 -40.84375 C 29.382812 -40.195312 27.539062 -39.3125 25.21875 -38.1875 C 24.9375 -38.007812 24.640625 -37.800781 24.328125 -37.5625 C 24.023438 -37.332031 23.851562 -37.035156 23.8125 -36.671875 L 23.8125 -10.09375 C 23.8125 -8.46875 24.132812 -7.226562 24.78125 -6.375 C 25.4375 -5.519531 26.195312 -4.898438 27.0625 -4.515625 C 27.9375 -4.140625 28.804688 -3.890625 29.671875 -3.765625 C 30.535156 -3.640625 31.203125 -3.46875 31.671875 -3.25 C 31.816406 -3.175781 31.941406 -2.941406 32.046875 -2.546875 C 32.160156 -2.148438 32.21875 -1.863281 32.21875 -1.6875 C 32.21875 -1.46875 32.179688 -1.148438 32.109375 -0.734375 C 32.035156 -0.316406 31.890625 -0.0703125 31.671875 0 L 3.359375 0 C 3.140625 -0.0703125 2.992188 -0.316406 2.921875 -0.734375 C 2.859375 -1.148438 2.828125 -1.46875 2.828125 -1.6875 C 2.828125 -1.863281 2.878906 -2.148438 2.984375 -2.546875 C 3.085938 -2.941406 3.210938 -3.175781 3.359375 -3.25 C 3.828125 -3.46875 4.492188 -3.640625 5.359375 -3.765625 C 6.234375 -3.890625 7.101562 -4.140625 7.96875 -4.515625 C 8.84375 -4.898438 9.601562 -5.519531 10.25 -6.375 C 10.90625 -7.226562 11.234375 -8.46875 11.234375 -10.09375 L 11.234375 -37.640625 C 11.234375 -38.515625 10.992188 -39.191406 10.515625 -39.671875 C 10.046875 -40.160156 9.453125 -40.53125 8.734375 -40.78125 C 8.015625 -41.039062 7.238281 -41.25 6.40625 -41.40625 C 5.570312 -41.570312 4.773438 -41.765625 4.015625 -41.984375 C 3.796875 -42.054688 3.625 -42.15625 3.5 -42.28125 C 3.375 -42.40625 3.3125 -42.671875 3.3125 -43.078125 C 3.3125 -43.253906 3.363281 -43.429688 3.46875 -43.609375 C 3.582031 -43.796875 3.800781 -43.976562 4.125 -44.15625 Z M 22.078125 -52.625 "/></g></g><g transform="translate(735.001961, 247.335839)"><g><path d="M 8.1875 -41.828125 L 4.125 -41.828125 C 3.613281 -41.828125 3.210938 -41.953125 2.921875 -42.203125 C 2.640625 -42.453125 2.476562 -42.722656 2.4375 -43.015625 C 2.4375 -43.191406 2.472656 -43.390625 2.546875 -43.609375 C 2.617188 -43.828125 2.710938 -43.972656 2.828125 -44.046875 C 3.546875 -44.515625 4.328125 -45.066406 5.171875 -45.703125 C 6.023438 -46.335938 6.867188 -47 7.703125 -47.6875 C 8.535156 -48.375 9.347656 -49.054688 10.140625 -49.734375 C 10.941406 -50.421875 11.648438 -51.054688 12.265625 -51.640625 C 12.617188 -52.035156 13.113281 -52.628906 13.75 -53.421875 C 14.382812 -54.222656 15.109375 -55.007812 15.921875 -55.78125 C 16.734375 -56.5625 17.609375 -57.25 18.546875 -57.84375 C 19.492188 -58.445312 20.453125 -58.75 21.421875 -58.75 C 21.640625 -58.75 21.894531 -58.675781 22.1875 -58.53125 C 22.476562 -58.382812 22.625 -58.203125 22.625 -57.984375 C 22.625 -57.734375 22.554688 -57.34375 22.421875 -56.8125 C 22.296875 -56.289062 22.144531 -55.703125 21.96875 -55.046875 C 21.789062 -54.398438 21.59375 -53.710938 21.375 -52.984375 C 21.15625 -52.265625 20.957031 -51.5625 20.78125 -50.875 C 20.78125 -50.59375 20.820312 -50.359375 20.90625 -50.171875 C 21 -49.992188 21.242188 -49.882812 21.640625 -49.84375 L 35.46875 -49.84375 C 36.050781 -49.84375 36.453125 -49.742188 36.671875 -49.546875 C 36.890625 -49.347656 37.050781 -49.085938 37.15625 -48.765625 C 37.226562 -48.585938 37.300781 -48.21875 37.375 -47.65625 C 37.445312 -47.09375 37.519531 -46.476562 37.59375 -45.8125 C 37.664062 -45.144531 37.726562 -44.472656 37.78125 -43.796875 C 37.832031 -43.128906 37.859375 -42.578125 37.859375 -42.140625 C 37.859375 -41.929688 37.710938 -41.828125 37.421875 -41.828125 L 21.09375 -41.828125 C 20.914062 -41.828125 20.816406 -41.789062 20.796875 -41.71875 C 20.785156 -41.644531 20.78125 -41.515625 20.78125 -41.328125 L 20.78125 -14.375 C 20.78125 -13.21875 20.921875 -12.203125 21.203125 -11.328125 C 21.492188 -10.460938 21.863281 -9.738281 22.3125 -9.15625 C 22.769531 -8.582031 23.285156 -8.148438 23.859375 -7.859375 C 24.441406 -7.578125 25.023438 -7.4375 25.609375 -7.4375 C 27.265625 -7.4375 28.617188 -7.675781 29.671875 -8.15625 C 30.722656 -8.644531 31.625 -9.175781 32.375 -9.75 C 33.132812 -10.332031 33.804688 -10.867188 34.390625 -11.359375 C 34.972656 -11.847656 35.625 -12.09375 36.34375 -12.09375 C 36.851562 -12.09375 37.148438 -11.894531 37.234375 -11.5 C 37.328125 -11.101562 37.375 -10.796875 37.375 -10.578125 C 37.375 -10.109375 37.3125 -9.738281 37.1875 -9.46875 C 37.0625 -9.195312 36.960938 -8.988281 36.890625 -8.84375 C 36.847656 -8.769531 36.644531 -8.460938 36.28125 -7.921875 C 35.925781 -7.378906 35.441406 -6.726562 34.828125 -5.96875 C 34.210938 -5.207031 33.460938 -4.390625 32.578125 -3.515625 C 31.691406 -2.648438 30.703125 -1.847656 29.609375 -1.109375 C 28.523438 -0.367188 27.34375 0.242188 26.0625 0.734375 C 24.78125 1.222656 23.4375 1.46875 22.03125 1.46875 C 20.070312 1.46875 18.242188 1.101562 16.546875 0.375 C 14.847656 -0.34375 13.382812 -1.304688 12.15625 -2.515625 C 10.925781 -3.734375 9.957031 -5.117188 9.25 -6.671875 C 8.539062 -8.222656 8.1875 -9.832031 8.1875 -11.5 Z M 8.1875 -41.828125 "/></g></g></g></svg>